<?xml version="1.0" encoding="UTF-8" standalone="no"?>
<svg
   width="24"
   height="24"
   viewBox="0 0 24 24"
   fill="none"
   stroke="currentColor"
   stroke-width="2"
   stroke-linecap="round"
   stroke-linejoin="round"
   class="feather feather-align-justify"
   version="1.1"
   id="svg10"
   sodipodi:docname="align-justify.svg"
   inkscape:version="1.2.1 (9c6d41e410, 2022-07-14)"
   xmlns:inkscape="http://www.inkscape.org/namespaces/inkscape"
   xmlns:sodipodi="http://sodipodi.sourceforge.net/DTD/sodipodi-0.dtd"
   xmlns="http://www.w3.org/2000/svg"
   xmlns:svg="http://www.w3.org/2000/svg">
  <defs
     id="defs14" />
  <sodipodi:namedview
     id="namedview12"
     pagecolor="#ffffff"
     bordercolor="#000000"
     borderopacity="0.25"
     inkscape:showpageshadow="2"
     inkscape:pageopacity="0.0"
     inkscape:pagecheckerboard="true"
     inkscape:deskcolor="#d1d1d1"
     showgrid="false"
     inkscape:zoom="34.875"
     inkscape:cx="12"
     inkscape:cy="12.014337"
     inkscape:window-width="1920"
     inkscape:window-height="1017"
     inkscape:window-x="-8"
     inkscape:window-y="-8"
     inkscape:window-maximized="1"
     inkscape:current-layer="svg10" />
  <line
     x1="21"
     y1="10"
     x2="3"
     y2="10"
     id="line2" />
  <line
     x1="21"
     y1="6"
     x2="3"
     y2="6"
     id="line4"
     style="fill:#ffffff" />
  <line
     x1="21"
     y1="14"
     x2="3"
     y2="14"
     id="line6" />
  <line
     x1="21"
     y1="18"
     x2="3"
     y2="18"
     id="line8" />
  <path
     style="fill:#ffffff;stroke:#ffffff;stroke-width:0.0573477"
     d="M 2.693024,6.9299359 C 2.4073744,6.8310078 2.1852432,6.6136134 2.0771526,6.3271974 1.9963827,6.1131753 2.0099627,5.801103 2.1091715,5.5913978 2.2070531,5.3844979 2.4321355,5.1701061 2.6388815,5.086847 L 2.8100358,5.0179211 H 12 21.189964 l 0.171155,0.068926 c 0.205533,0.082771 0.430171,0.2959748 0.531609,0.5045508 0.05776,0.1187752 0.06987,0.1876384 0.07058,0.4014337 7.25e-4,0.2192221 -0.01035,0.2818016 -0.07354,0.4157707 -0.09418,0.1996693 -0.271956,0.3771946 -0.480057,0.479389 l -0.162399,0.079751 -9.204301,0.00632 c -8.7202878,0.00599 -9.2119623,0.00367 -9.349987,-0.04413 z"
     id="path312" />
  <path
     style="fill:#ffffff;stroke:#ffffff;stroke-width:0.0573477"
     d="M 2.7677203,10.950562 C 2.4647867,10.868938 2.2439161,10.685437 2.1028334,10.398168 2.0498754,10.290337 2.0373855,10.216499 2.0366944,10.007168 2.0359705,9.7879464 2.0470389,9.7253669 2.1102316,9.5913978 2.2044148,9.3917285 2.3821877,9.2142032 2.5902893,9.1120088 L 2.7526882,9.0322581 H 12 21.247312 l 0.162399,0.079751 c 0.208101,0.1021944 0.385874,0.2797197 0.480057,0.479389 0.06319,0.1339691 0.07426,0.1965486 0.07354,0.4157699 -7.06e-4,0.213796 -0.01281,0.282659 -0.07058,0.401434 -0.101438,0.208576 -0.326076,0.42178 -0.531609,0.504551 l -0.171155,0.06893 -9.132616,0.0054 c -7.9718417,0.0047 -9.1525732,1.8e-5 -9.2896277,-0.03691 z"
     id="path314" />
  <path
     style="fill:#ffffff;stroke:#ffffff;stroke-width:0.0573477"
     d="m 2.693024,14.929936 c -0.2856496,-0.09893 -0.5077808,-0.316323 -0.6158714,-0.602739 -0.08077,-0.214022 -0.06719,-0.526094 0.032019,-0.735799 0.097882,-0.2069 0.322964,-0.421292 0.52971,-0.504551 l 0.1711543,-0.06893 H 12 21.189964 l 0.171155,0.06893 c 0.205533,0.08277 0.430171,0.295975 0.531609,0.504551 0.05776,0.118775 0.06987,0.187638 0.07058,0.401434 7.25e-4,0.219222 -0.01035,0.281801 -0.07354,0.41577 -0.09418,0.199669 -0.271956,0.377195 -0.480057,0.479389 l -0.162399,0.07975 -9.204301,0.0063 c -8.7202878,0.006 -9.2119623,0.0037 -9.349987,-0.04413 z"
     id="path316" />
  <path
     style="fill:#ffffff;stroke:#ffffff;stroke-width:0.0573477"
     d="m 2.7677203,18.950562 c -0.3029336,-0.08162 -0.5238042,-0.265125 -0.6648869,-0.552394 -0.052958,-0.107831 -0.065448,-0.181669 -0.066139,-0.391 -7.239e-4,-0.219222 0.010344,-0.281801 0.073537,-0.41577 0.094183,-0.199669 0.2719561,-0.377195 0.4800577,-0.479389 L 2.752688,17.032259 H 12 21.247312 l 0.162399,0.07975 c 0.208101,0.102194 0.385874,0.27972 0.480057,0.479389 0.06319,0.133969 0.07426,0.196548 0.07354,0.41577 -7.06e-4,0.213796 -0.01281,0.282659 -0.07058,0.401434 -0.101438,0.208576 -0.326076,0.42178 -0.531609,0.504551 l -0.171155,0.06893 -9.132616,0.0054 c -7.9718417,0.0047 -9.1525732,1.8e-5 -9.2896277,-0.03691 z"
     id="path318" />
</svg>
