<?xml version="1.0" encoding="UTF-8" standalone="no"?>
<svg
   width="24"
   height="24"
   viewBox="0 0 24 24"
   fill="none"
   stroke="currentColor"
   stroke-width="2"
   stroke-linecap="round"
   stroke-linejoin="round"
   class="feather feather-folder"
   version="1.1"
   id="svg4"
   sodipodi:docname="folder.svg"
   inkscape:version="1.2.1 (9c6d41e410, 2022-07-14)"
   xmlns:inkscape="http://www.inkscape.org/namespaces/inkscape"
   xmlns:sodipodi="http://sodipodi.sourceforge.net/DTD/sodipodi-0.dtd"
   xmlns="http://www.w3.org/2000/svg"
   xmlns:svg="http://www.w3.org/2000/svg">
  <defs
     id="defs8" />
  <sodipodi:namedview
     id="namedview6"
     pagecolor="#ffffff"
     bordercolor="#000000"
     borderopacity="0.25"
     inkscape:showpageshadow="2"
     inkscape:pageopacity="0.0"
     inkscape:pagecheckerboard="0"
     inkscape:deskcolor="#d1d1d1"
     showgrid="false"
     inkscape:zoom="34.875"
     inkscape:cx="12"
     inkscape:cy="12.014337"
     inkscape:window-width="1920"
     inkscape:window-height="1017"
     inkscape:window-x="-8"
     inkscape:window-y="-8"
     inkscape:window-maximized="1"
     inkscape:current-layer="svg4" />
  <path
     d="M22 19a2 2 0 0 1-2 2H4a2 2 0 0 1-2-2V5a2 2 0 0 1 2-2h5l2 3h9a2 2 0 0 1 2 2z"
     id="path2" />
  <path
     style="fill:#ffffff;stroke:#ffffff;stroke-width:0.0573477"
     d="M 3.5389073,21.949687 C 2.3400063,21.745252 1.3986517,20.872908 1.0946165,19.684588 L 1.0322581,19.44086 V 12 4.5591398 L 1.0946165,4.3154122 C 1.3754848,3.2176396 2.1807208,2.4035785 3.2837864,2.1022496 l 0.2430953,-0.066407 h 2.8673835 c 2.854913,0 2.867951,2.626e-4 2.9978727,0.060377 0.071769,0.033208 0.1802045,0.1040282 0.240968,0.1573792 0.063209,0.055499 0.4889801,0.6645569 0.9951121,1.4234937 l 0.884634,1.3264918 h 4.259041 c 2.832059,0 4.351142,0.01027 4.533931,0.030652 1.245332,0.1388628 2.241102,0.9950824 2.582108,2.220244 l 0.07981,0.2867383 v 5.9498204 5.949821 l -0.06236,0.243728 c -0.189496,0.740642 -0.636111,1.380053 -1.24859,1.787582 -0.295394,0.196549 -0.541451,0.310825 -0.891213,0.413904 l -0.263789,0.07774 -8.41577,0.0041 c -4.6286743,0.0023 -8.4748757,-0.0059 -8.5471147,-0.01826 z M 20.434011,19.919524 c 0.20371,-0.101352 0.348801,-0.241282 0.45689,-0.440642 l 0.09835,-0.181391 0.0074,-5.754458 c 0.0074,-5.7522255 0.0074,-5.7545195 -0.05172,-5.9125917 -0.08244,-0.220353 -0.275241,-0.4248969 -0.508948,-0.539959 l -0.19102,-0.094066 -4.746138,-0.014337 -4.746137,-0.014337 -0.162399,-0.079751 C 10.50097,6.8441285 10.37828,6.7586303 10.317646,6.6979957 10.257011,6.6373611 9.8204132,6.0056875 9.347428,5.2942767 L 8.4874552,4.0008026 6.09319,4.0075697 3.6989247,4.0143369 3.5677256,4.0789897 C 3.3660462,4.178374 3.2170532,4.3220074 3.1090994,4.5211179 l -0.098347,0.1813911 -0.00739,7.236255 c -0.00476,4.659605 0.00262,7.273375 0.02071,7.340502 0.075117,0.278669 0.3506705,0.58005 0.6175048,0.675382 0.098539,0.03521 1.2799621,0.04028 8.3870968,0.036 l 8.272401,-0.005 z"
     id="path183" />
</svg>
