<?xml version="1.0" encoding="UTF-8" standalone="no"?>
<!-- Created with Inkscape (http://www.inkscape.org/) -->

<svg
   version="1.1"
   id="svg4245"
   width="393.23532"
   height="390.43127"
   viewBox="0 0 393.23532 390.43127"
   sodipodi:docname="arrow.svg"
   inkscape:version="1.2.1 (9c6d41e410, 2022-07-14)"
   xmlns:inkscape="http://www.inkscape.org/namespaces/inkscape"
   xmlns:sodipodi="http://sodipodi.sourceforge.net/DTD/sodipodi-0.dtd"
   xmlns="http://www.w3.org/2000/svg"
   xmlns:svg="http://www.w3.org/2000/svg">
  <defs
     id="defs4249" />
  <sodipodi:namedview
     id="namedview4247"
     pagecolor="#505050"
     bordercolor="#eeeeee"
     borderopacity="1"
     inkscape:showpageshadow="0"
     inkscape:pageopacity="0"
     inkscape:pagecheckerboard="0"
     inkscape:deskcolor="#505050"
     showgrid="false"
     inkscape:zoom="1"
     inkscape:cx="100"
     inkscape:cy="190"
     inkscape:window-width="1366"
     inkscape:window-height="705"
     inkscape:window-x="-8"
     inkscape:window-y="-8"
     inkscape:window-maximized="1"
     inkscape:current-layer="g4251" />
  <g
     inkscape:groupmode="layer"
     inkscape:label="Image"
     id="g4251"
     transform="translate(-120.02706,-72.015195)">
    <path
       style="fill:#ffffff"
       d="m 460.24086,460.0054 c -9.85888,-6.01103 -9.5985,-15.44514 0.67609,-24.49556 L 464.3339,432.5 313.91695,432 C 145.76526,431.44105 158.95147,432.0433 153.56453,424.67683 151.50559,421.86131 151.49865,421.4474 151,271.82171 l -0.5,-150.03195 -2,2.25152 C 137.47415,136.45374 120.15316,132.47447 120.02709,117.5 119.98879,112.95543 155.29814,74 159.45561,74 160.30502,74 161,73.55 161,73 c 0,-0.55 2.1375,-0.993109 4.75,-0.984687 3.43547,0.01107 4.33489,0.28358 3.25,0.984687 -1.1883,0.76794 -0.9805,0.971549 1,0.979839 2.60895,0.01092 30.86842,28.012191 36.74082,36.405121 10.88076,15.55098 -12.23275,29.96667 -23.5355,14.67888 C 181.95946,123.37873 180.5036,122 179.97006,122 179.3479,122 179,172.56763 179,263 v 141 h 142.14506 142.14505 l -4.97703,-5.26248 c -7.34842,-7.76987 -7.88916,-14.95158 -1.57903,-20.97153 8.11466,-7.74149 12.71912,-6.46151 27.22473,7.56817 6.34954,6.14121 15.48136,14.86326 20.29292,19.38233 13.72143,12.8873 12.91226,15.83238 -10.38116,37.78351 -22.34429,21.05669 -25.29012,22.5901 -33.62968,17.5054 z M 324.65049,369.8745 c -23.30973,-3.5433 -36.95719,-30.97578 -25.72065,-51.70051 11.50094,-21.21238 39.7429,-25.55388 56.59648,-8.70031 24.29963,24.29964 3.19768,65.58032 -30.87583,60.40082 z m -97.41161,-12.20937 c -21.25155,-7.7073 -16.15839,-38.71131 6.34898,-38.64868 18.05541,0.0502 26.60197,20.44704 14.03471,33.49452 -5.77263,5.99321 -13.01837,7.82535 -20.38369,5.15416 z M 420.3516,351.90755 C 405.74043,347.67476 409.23625,325 424.5,325 c 15.61458,0 18.71399,22.79104 3.66773,26.97013 -2.01725,0.5603 -3.89273,0.98064 -4.16773,0.9341 -0.275,-0.0465 -1.91678,-0.49504 -3.6484,-0.99668 z M 414.9355,273.25 c -20.42495,-10.35724 -13.2989,-40.625 9.5645,-40.625 22.76907,0 29.90518,30.31049 9.5645,40.625 -3.32154,1.68431 -7.02801,2.75 -9.5645,2.75 -2.53649,0 -6.24296,-1.06569 -9.5645,-2.75 z M 237.5,272.12116 C 228.90797,268.17975 224.58278,261.4679 224.5337,252 c -0.14024,-27.05235 39.74798,-30.11146 44.02227,-3.37616 2.66418,16.6642 -15.68584,30.54804 -31.05597,23.49732 z m 85.4334,-9.38706 c -10.32857,-6.96042 -5.57935,-23.73984 6.7166,-23.73036 10.91796,0.008 17.1745,9.24181 12.68004,18.71319 -3.35972,7.08007 -12.73646,9.50547 -19.39664,5.01717 z m 7.39858,-71.6934 c -12.72087,-3.02991 -22.66363,-17.24963 -20.93654,-29.94257 3.19212,-23.45993 30.60307,-33.23006 47.0596,-16.77353 20.0409,20.04091 1.45178,53.284 -26.12306,46.7161 z m -99.15014,-5.63737 c -13.31642,-6.63586 -14.58913,-25.19162 -2.32221,-33.85725 5.79726,-4.09531 14.83938,-4.68357 20.54531,-1.33662 22.85423,13.40572 5.4613,46.9963 -18.2231,35.19387 z m 194.03634,-5.01285 c -9.89923,-5.0407 -10.40805,-18.6455 -0.91385,-24.43448 8.90386,-5.42903 20.7032,1.43004 20.69193,12.0284 -0.0104,9.76015 -11.19564,16.77626 -19.77808,12.40608 z"
       id="path2296"
       sodipodi:nodetypes="sscssscssssssssssscccssssssssssssssssssssssssssssscssssssssssssss" />
  </g>
</svg>
