<?xml version="1.0" encoding="UTF-8" standalone="no"?>
<svg
   width="24"
   height="24"
   viewBox="0 0 24 24"
   fill="none"
   stroke="currentColor"
   stroke-width="2"
   stroke-linecap="round"
   stroke-linejoin="round"
   class="feather feather-home"
   version="1.1"
   id="svg6"
   sodipodi:docname="home.svg"
   inkscape:version="1.2.1 (9c6d41e410, 2022-07-14)"
   xmlns:inkscape="http://www.inkscape.org/namespaces/inkscape"
   xmlns:sodipodi="http://sodipodi.sourceforge.net/DTD/sodipodi-0.dtd"
   xmlns="http://www.w3.org/2000/svg"
   xmlns:svg="http://www.w3.org/2000/svg">
  <defs
     id="defs10" />
  <sodipodi:namedview
     id="namedview8"
     pagecolor="#ffffff"
     bordercolor="#000000"
     borderopacity="0.25"
     inkscape:showpageshadow="2"
     inkscape:pageopacity="0.0"
     inkscape:pagecheckerboard="0"
     inkscape:deskcolor="#d1d1d1"
     showgrid="false"
     inkscape:zoom="34.875"
     inkscape:cx="12"
     inkscape:cy="12.014337"
     inkscape:window-width="1920"
     inkscape:window-height="1017"
     inkscape:window-x="-8"
     inkscape:window-y="-8"
     inkscape:window-maximized="1"
     inkscape:current-layer="svg6" />
  <path
     d="M3 9l9-7 9 7v11a2 2 0 0 1-2 2H5a2 2 0 0 1-2-2z"
     id="path2" />
  <polyline
     points="9 22 9 12 15 12 15 22"
     id="polyline4" />
  <path
     style="fill:#ffffff;stroke:#ffffff;stroke-width:0.0573477"
     d="M 4.6164875,22.962 C 3.4087375,22.795436 2.4318793,21.922879 2.1022496,20.716214 L 2.0358423,20.473118 V 14.609319 8.7455197 l 0.07757,-0.1577061 C 2.1560757,8.5010753 2.2528499,8.3705924 2.328466,8.2978518 2.4040821,8.2251111 4.4997472,6.5848869 6.9854996,4.652909 10.141443,2.2000453 11.547274,1.123935 11.644998,1.0862401 c 0.18831,-0.072637 0.521694,-0.072637 0.710004,0 0.168185,0.064874 9.085743,6.9801765 9.340974,7.2436495 0.109999,0.113551 0.181414,0.2192396 0.222694,0.3295708 l 0.06077,0.1624154 -0.008,5.8399582 -0.008,5.839958 -0.07759,0.263789 c -0.316704,1.076676 -1.10365,1.846479 -2.187,2.13936 l -0.229391,0.06201 -7.383512,0.0035 c -4.0609324,0.0019 -7.4222227,-0.0019 -7.4695345,-0.0084 z m 3.4046761,-6.582072 0.00751,-4.623656 0.079751,-0.162398 c 0.096971,-0.197466 0.2699426,-0.375785 0.4637433,-0.478081 l 0.1446779,-0.07637 H 12 15.283154 l 0.144678,0.07637 c 0.193801,0.102296 0.366772,0.280615 0.463743,0.478081 l 0.07975,0.162398 0.0075,4.624547 0.0075,4.624546 1.655572,-0.0081 1.655572,-0.0081 0.181391,-0.09835 c 0.199111,-0.107954 0.342744,-0.256947 0.442128,-0.458627 l 0.06465,-0.131199 0.0068,-5.419355 0.0068,-5.4193544 -3.983423,-3.0967742 C 13.824982,4.6623656 12.018783,3.2688172 12.002089,3.2688172 c -0.01669,0 -1.823544,1.3935484 -4.0152236,3.0967742 L 4.0019939,9.4623656 4.0008551,14.83871 c -0.00127,6.002321 -0.018722,5.495662 0.1992382,5.784631 0.1032606,0.136901 0.3414732,0.3028 0.5024157,0.349898 0.047312,0.01384 0.8116742,0.02634 1.6985829,0.02776 l 1.6125614,0.0026 z m 5.9860044,0.609319 V 12.97491 H 12 9.9928315 v 4.014337 4.014337 H 12 14.007168 Z"
     id="path131" />
</svg>
