<?xml version="1.0" encoding="UTF-8" standalone="no"?>
<!-- Svg Vector Icons : http://www.onlinewebfonts.com/icon -->

<svg
   version="1.1"
   x="0px"
   y="0px"
   viewBox="0 0 1000 1000"
   enable-background="new 0 0 1000 1000"
   xml:space="preserve"
   id="svg142"
   sodipodi:docname="human - white.svg"
   inkscape:version="1.2.1 (9c6d41e410, 2022-07-14)"
   xmlns:inkscape="http://www.inkscape.org/namespaces/inkscape"
   xmlns:sodipodi="http://sodipodi.sourceforge.net/DTD/sodipodi-0.dtd"
   xmlns="http://www.w3.org/2000/svg"
   xmlns:svg="http://www.w3.org/2000/svg"><defs
   id="defs146" /><sodipodi:namedview
   id="namedview144"
   pagecolor="#505050"
   bordercolor="#eeeeee"
   borderopacity="1"
   inkscape:showpageshadow="0"
   inkscape:pageopacity="0"
   inkscape:pagecheckerboard="0"
   inkscape:deskcolor="#505050"
   showgrid="false"
   inkscape:zoom="0.525"
   inkscape:cx="469.52381"
   inkscape:cy="500.95238"
   inkscape:window-width="1366"
   inkscape:window-height="705"
   inkscape:window-x="-8"
   inkscape:window-y="-8"
   inkscape:window-maximized="1"
   inkscape:current-layer="svg142" />
<metadata
   id="metadata132"> Svg Vector Icons : http://www.onlinewebfonts.com/icon </metadata>
<g
   id="g140"
   style="stroke:#ffffff;stroke-opacity:1;fill:#ffffff;fill-opacity:1"><g
     transform="translate(0.000000,511.000000) scale(0.100000,-0.100000)"
     id="g138"
     style="stroke:#ffffff;stroke-opacity:1;fill:#ffffff;fill-opacity:1"><path
       d="M3382.8,4987.2c-473.5-51.5-1027.9-240.4-1449.9-490.7c-2080.4-1238.9-2460.7-4075-775.3-5804.6c775.3-797.3,1894-1216.9,2966.1-1113.8c939.6,90.8,1678.1,434.2,2325.7,1081.9C8056.4,269.4,7874.9,2879.8,6057,4265.9C5316.1,4830.2,4342.1,5092.7,3382.8,4987.2z M4170.4,3419.5c456.3-147.2,755.6-561.8,755.6-1040.2c0-839.1-880.7-1354.3-1626.6-949.5c-154.6,83.4-363.1,309.1-444.1,480.9c-137.4,291.9-139.8,640.3-4.9,934.7c71.1,157,274.8,382.7,426.9,471C3542.3,3473.5,3890.7,3512.7,4170.4,3419.5z M2112,2806.2c120.2-31.9,282.1-179.1,338.6-304.2c83.4-181.5,51.5-402.3-78.5-559.4c-255.1-309.1-723.7-250.2-910.2,112.8c-39.2,78.5-46.6,132.5-39.2,265c12.3,213.4,95.7,343.5,287,444.1C1849.5,2838.1,1959.9,2850.3,2112,2806.2z M5971.1,2747.3c161.9-95.7,240.4-228.2,250.2-429.3c12.3-198.7-39.2-318.9-193.8-449c-350.8-301.8-883.2-36.8-880.8,436.7c2.5,196.3,164.4,419.5,358.2,493.1C5639.9,2847.9,5836.2,2825.8,5971.1,2747.3z M1810.2,1692.4c46.6-34.3,112.9-61.3,147.2-61.3s100.6,27,147.2,61.3c100.6,73.6,112.9,73.6,252.7,14.7c139.8-61.3,277.2-181.5,338.6-299.3c63.8-127.6,58.9-176.6-24.5-225.7c-110.4-63.8-282.1-240.4-382.7-395l-93.2-137.4h-534.8h-537.3v252.7c0,377.8,71.1,556.9,282.1,718.8c78.5,58.9,235.5,130,296.9,132.5C1714.6,1753.7,1763.6,1726.7,1810.2,1692.4z M5544.2,1692.4c95.7-81,201.2-78.5,309.1,2.5c76.1,58.9,90.8,63.8,176.6,36.8c169.3-51.5,323.8-179.1,404.8-331.2c66.3-130,73.6-166.8,81-446.5l9.8-304.2h-515.2h-515.2l-61.3,105.5c-90.8,154.6-242.9,316.5-395,422c-76.1,51.5-137.4,107.9-137.4,125.1c0,58.9,161.9,267.4,257.6,331.2c98.1,63.8,215.9,115.3,279.7,117.8C5455.9,1753.7,5502.5,1726.7,5544.2,1692.4z M4808.2,1137.9c179.1-90.8,429.3-331.2,510.3-488.2c144.7-284.6,154.6-341,166.8-961.7l9.8-583.9H3836.7H2178.2v461.2c0,576.5,22.1,721.3,149.7,983.8c174.2,353.3,498,615.8,897.9,728.6l149.6,41.7l152.1-120.2c132.5-103,166.8-117.8,291.9-127.6c161.9-12.3,233.1,17.2,404.8,164.4l110.4,95.7l159.5-58.9C4582.5,1240.9,4724.8,1179.6,4808.2,1137.9z"
       id="path134"
       style="stroke:#ffffff;stroke-opacity:1;fill:#ffffff;fill-opacity:1" /><path
       d="M7168.3-763.5c-331.2-520.1-775.3-964.2-1295.4-1295.4l-147.2-93.2l1226.6-1221.8c1096.7-1091.7,1241.4-1226.7,1383.7-1297.8c444-215.9,927.3-132.5,1261,215.9c323.8,341,392.5,799.8,184,1229.1c-71.2,142.3-206.1,287.1-1297.8,1383.7L7261.6-616.3L7168.3-763.5z"
       id="path136"
       style="stroke:#ffffff;stroke-opacity:1;fill:#ffffff;fill-opacity:1" /></g></g>
</svg>
