<?xml version="1.0" encoding="UTF-8" standalone="no"?>
<svg
   width="24"
   height="24"
   viewBox="0 0 24 24"
   fill="none"
   stroke="currentColor"
   stroke-width="2"
   stroke-linecap="round"
   stroke-linejoin="round"
   class="feather feather-info"
   version="1.1"
   id="svg145"
   sodipodi:docname="info.svg"
   inkscape:version="1.2.1 (9c6d41e410, 2022-07-14)"
   xmlns:inkscape="http://www.inkscape.org/namespaces/inkscape"
   xmlns:sodipodi="http://sodipodi.sourceforge.net/DTD/sodipodi-0.dtd"
   xmlns="http://www.w3.org/2000/svg"
   xmlns:svg="http://www.w3.org/2000/svg">
  <defs
     id="defs149" />
  <sodipodi:namedview
     id="namedview147"
     pagecolor="#ffffff"
     bordercolor="#000000"
     borderopacity="0.25"
     inkscape:showpageshadow="2"
     inkscape:pageopacity="0.0"
     inkscape:pagecheckerboard="0"
     inkscape:deskcolor="#d1d1d1"
     showgrid="false"
     inkscape:zoom="34.875"
     inkscape:cx="12"
     inkscape:cy="12.014337"
     inkscape:window-width="1920"
     inkscape:window-height="1017"
     inkscape:window-x="-8"
     inkscape:window-y="-8"
     inkscape:window-maximized="1"
     inkscape:current-layer="svg145" />
  <circle
     cx="12"
     cy="12"
     r="10"
     id="circle139" />
  <line
     x1="12"
     y1="16"
     x2="12"
     y2="12"
     id="line141" />
  <line
     x1="12"
     y1="8"
     x2="12.01"
     y2="8"
     id="line143" />
  <path
     style="fill:#ffffff;stroke:#ffffff;stroke-width:0.0573477"
     d="M 11.096774,22.949779 C 9.1278526,22.782119 7.238441,22.088768 5.6293204,20.943407 4.8798624,20.409948 4.0046698,19.584247 3.4440594,18.88172 1.8594164,16.895933 1.0185128,14.510135 1.0185128,12 c 0,-2.5124473 0.8384411,-4.8911082 2.4256996,-6.8817204 C 3.8382822,4.6240691 4.620689,3.8412368 5.1182796,3.4433027 6.881231,2.0334314 8.938199,1.2234217 11.211355,1.0439217 c 0.5265,-0.041575 1.539914,-0.019401 2.078968,0.045489 2.510853,0.3022511 4.837438,1.4572804 6.597458,3.2752973 2.062618,2.1305864 3.168383,4.9687871 3.085312,7.919165 -0.03272,1.162024 -0.198037,2.115579 -0.549814,3.171324 -0.551553,1.655308 -1.416073,3.050644 -2.666033,4.302976 -1.868374,1.871922 -4.243795,2.969813 -6.911368,3.194351 -0.401604,0.03381 -1.337126,0.03234 -1.749104,-0.0027 z m 1.871783,-1.990084 c 3.578302,-0.372047 6.614031,-2.889657 7.661386,-6.353789 0.50172,-1.659441 0.50172,-3.552371 0,-5.2118119 C 19.913162,7.0233362 18.25202,5.0503576 16.043011,3.9460832 15.031334,3.4403505 14.062368,3.1562516 12.943951,3.0374452 12.350192,2.9743718 11.236399,2.9945276 10.695341,3.0781373 9.1910122,3.310601 7.7999166,3.884677 6.6379928,4.7525193 4.8649918,6.0767765 3.6460034,7.9674971 3.1855038,10.107527 3.0354745,10.804742 3.0116152,11.064408 3.0116152,12 c 0,0.933373 0.024033,1.19636 0.1722051,1.884391 0.4641653,2.155336 1.6736294,4.0332 3.4541725,5.36309 1.2390045,0.925414 2.8125411,1.54308 4.3584232,1.710828 0.499071,0.05416 1.458125,0.05483 1.972141,0.0014 z"
     id="path259" />
  <path
     style="fill:#ffffff;stroke:#ffffff;stroke-width:0.0573477"
     d="M 11.686424,8.9294592 C 11.440291,8.8490867 11.17923,8.5967588 11.087096,8.3501788 10.946238,7.973196 11.031219,7.6018523 11.325825,7.3070031 c 0.153457,-0.1535832 0.204222,-0.1852204 0.385602,-0.2403132 0.567568,-0.1723932 1.108588,0.1417056 1.253157,0.7275424 0.179044,0.7255357 -0.549957,1.3730143 -1.27816,1.1352269 z"
     id="path261" />
  <path
     style="fill:#ffffff;stroke:#ffffff;stroke-width:0.0573477"
     d="m 11.686424,16.927612 c -0.246473,-0.07802 -0.506528,-0.329073 -0.600005,-0.579243 l -0.06268,-0.167761 0.0078,-2.226504 0.0078,-2.226505 0.07077,-0.14337 c 0.09058,-0.18351 0.291138,-0.383876 0.474034,-0.473589 0.208361,-0.102202 0.623181,-0.102202 0.831542,0 0.183468,0.08999 0.384434,0.290639 0.474344,0.473589 l 0.07046,0.14337 0.0078,2.226505 0.0078,2.226504 -0.06268,0.167761 c -0.04583,0.122653 -0.110064,0.215179 -0.238897,0.344118 -0.148818,0.148942 -0.206512,0.185717 -0.371121,0.236559 -0.240252,0.07421 -0.379194,0.07388 -0.617139,-0.0014 z"
     id="path263" />
</svg>
