<?xml version="1.0" encoding="UTF-8" standalone="no"?>
<!-- Svg Vector Icons : http://www.onlinewebfonts.com/icon -->

<svg
   version="1.1"
   x="0px"
   y="0px"
   viewBox="0 0 3050 1000"
   enable-background="new 0 0 1000 1000"
   xml:space="preserve"
   id="svg10"
   sodipodi:docname="shutter.svg"
   inkscape:version="1.2.1 (9c6d41e410, 2022-07-14)"
   width="3050"
   height="1000"
   xmlns:inkscape="http://www.inkscape.org/namespaces/inkscape"
   xmlns:sodipodi="http://sodipodi.sourceforge.net/DTD/sodipodi-0.dtd"
   xmlns:xlink="http://www.w3.org/1999/xlink"
   xmlns="http://www.w3.org/2000/svg"
   xmlns:svg="http://www.w3.org/2000/svg"><defs
   id="defs14"><linearGradient
     inkscape:collect="always"
     id="linearGradient1017"><stop
       style="stop-color:#800000;stop-opacity:1;"
       offset="0"
       id="stop1013" /><stop
       style="stop-color:#ff2b00;stop-opacity:1;"
       offset="0.36824325"
       id="stop1108" /><stop
       style="stop-color:#ffaa00;stop-opacity:1;"
       offset="0.64864868"
       id="stop1110" /><stop
       style="stop-color:#ffff00;stop-opacity:1;"
       offset="0.85135138"
       id="stop1112" /><stop
       style="stop-color:#ffffff;stop-opacity:1;"
       offset="1"
       id="stop1015" /></linearGradient><linearGradient
     inkscape:collect="always"
     xlink:href="#linearGradient1017"
     id="linearGradient1019"
     x1="-12.474291"
     y1="506.50363"
     x2="3033.7571"
     y2="519.83264"
     gradientUnits="userSpaceOnUse" /><linearGradient
     inkscape:collect="always"
     xlink:href="#linearGradient1017"
     id="linearGradient3301"
     gradientUnits="userSpaceOnUse"
     x1="-12.474291"
     y1="506.50363"
     x2="3033.7571"
     y2="519.83264" /><linearGradient
     inkscape:collect="always"
     xlink:href="#linearGradient1017"
     id="linearGradient3303"
     gradientUnits="userSpaceOnUse"
     x1="-12.474291"
     y1="506.50363"
     x2="3033.7571"
     y2="519.83264" /><linearGradient
     inkscape:collect="always"
     xlink:href="#linearGradient1017"
     id="linearGradient3305"
     gradientUnits="userSpaceOnUse"
     x1="-12.474291"
     y1="506.50363"
     x2="3033.7571"
     y2="519.83264" /><linearGradient
     inkscape:collect="always"
     xlink:href="#linearGradient1017"
     id="linearGradient3307"
     gradientUnits="userSpaceOnUse"
     x1="-12.474291"
     y1="506.50363"
     x2="3033.7571"
     y2="519.83264" /><linearGradient
     inkscape:collect="always"
     xlink:href="#linearGradient1017"
     id="linearGradient3309"
     gradientUnits="userSpaceOnUse"
     x1="-12.474291"
     y1="506.50363"
     x2="3033.7571"
     y2="519.83264" /><linearGradient
     inkscape:collect="always"
     xlink:href="#linearGradient1017"
     id="linearGradient3311"
     gradientUnits="userSpaceOnUse"
     x1="-12.474291"
     y1="506.50363"
     x2="3033.7571"
     y2="519.83264" /></defs><sodipodi:namedview
   id="namedview12"
   pagecolor="#505050"
   bordercolor="#eeeeee"
   borderopacity="1"
   inkscape:showpageshadow="0"
   inkscape:pageopacity="0"
   inkscape:pagecheckerboard="0"
   inkscape:deskcolor="#505050"
   showgrid="false"
   inkscape:zoom="0.20526726"
   inkscape:cx="1641.7621"
   inkscape:cy="453.06787"
   inkscape:window-width="1366"
   inkscape:window-height="705"
   inkscape:window-x="-8"
   inkscape:window-y="-8"
   inkscape:window-maximized="1"
   inkscape:current-layer="svg10" />
<metadata
   id="metadata2"> Svg Vector Icons : http://www.onlinewebfonts.com/icon </metadata>

<g
   id="g3299"><g
     id="g870"
     style="fill:url(#linearGradient1019);fill-opacity:1"><g
       id="g862"
       style="fill:url(#linearGradient3311);fill-opacity:1"><g
         id="g8"
         style="opacity:1;fill:url(#linearGradient3303);fill-opacity:1"><g
           transform="matrix(0.1,0,0,-0.1,0,512)"
           id="g6"
           style="fill:url(#linearGradient3301);fill-opacity:1" /></g><g
         aria-label="Thermografi"
         id="text974"
         style="font-size:333.333px;fill:url(#linearGradient3309);fill-opacity:1"><path
           id="path896"
           d="m 486.28711,9.6855469 c -9.30247,-0.042732 -17.08908,0.1475004 -21.97656,0.6250001 -70.72986,6.899983 -126.8912,22.419121 -183.6211,50.789062 -48.2999,24.339956 -86.44017,52.130161 -127.08007,92.580081 -42.73992,42.9299 -70.729899,82.03947 -95.839849,134.35937 -21.459956,44.66992 -35.068611,88.18081 -43.308593,138.97071 -5.9499897,37.36992 -5.9499897,108.28998 0,145.66992 8.629982,52.89988 22.239733,95.45088 45.429687,142.80078 25.10995,51.1799 51.559065,88.17039 92.958985,129.57031 40.24992,40.43992 74.56102,65.74991 121.71094,90.08984 140.49972,72.44988 303.80051,73.59958 444.49023,3.25977 79.53984,-39.86992 152.37854,-106.75975 199.14844,-182.84961 77.42984,-126.49974 93.35118,-285.0202 42.36133,-424.16992 -8.42998,-22.99996 -32.0101,-71.30129 -44.08008,-90.28125 C 877.38055,179.56973 820.06894,122.26008 758.53906,83.160156 739.5591,71.080178 691.25971,47.51006 668.25977,39.080078 642.37981,29.690098 602.90025,19.529672 573.57031,14.929688 555.74286,12.042189 514.19452,9.8137423 486.28711,9.6855469 Z m 8.76562,49.5761721 c 14.30378,-0.07342 25.80297,0.40399 25.41797,1.458984 -1.34,4.219996 -222.91109,387.179137 -223.87109,387.369137 -0.96,0 -131.86908,-225.60064 -133.78906,-230.39062 -1.15,-2.88 26.64027,-32.1991 48.49023,-50.78906 68.23986,-58.83988 154.48993,-96.600804 241.50977,-105.800785 10.82998,-1.149999 27.93841,-1.774237 42.24218,-1.847656 z m 86.27344,7.61914 c 4.09194,0.08739 9.96564,1.462893 19.45313,3.619141 44.6599,10.539979 100.05013,34.11998 138.58008,59.41992 59.41987,38.90992 111.55154,94.30082 144.52148,153.7207 l 7.2793,13.0293 H 666.5293 c -123.43976,0 -224.05969,-0.5793 -223.67969,-1.5293 2.11,-3.63998 117.88041,-204.130886 124.40039,-215.630854 4.31,-7.474993 6.36727,-11.16508 10.50977,-12.267578 1.03561,-0.275626 2.20242,-0.390459 3.5664,-0.361329 z M 129.46094,262.16992 c 0.96,0 51.93832,87.21093 113.6582,193.9707 61.52988,106.5698 112.32172,194.55002 112.51172,195.5 0.38,0.77 -60.18094,1.5293 -134.55078,1.5293 H 85.949219 L 79.240234,632.2793 C 45.890302,529.5495 54.130485,409.56933 100.90039,312.76953 c 12.64998,-26.25994 26.45055,-50.59961 28.56055,-50.59961 z m 519.42968,84.33985 h 132.44922 132.25 l 6.71094,21.08007 c 13.41998,42.35992 20.31836,87.0201 20.31836,132.25 0,69.76986 -15.5299,134.36067 -47.33984,197.81055 -9.00998,17.62996 -17.24985,32.77969 -18.58985,33.92969 -1.72,1.53 -27.98055,-42.35989 -110.40039,-185.34961 C 704.85918,443.30067 654.44928,356.09063 652.5293,352.64062 Z m 2283.41208,21.06054 c -20.2906,0 -35.8086,5.80579 -46.5507,17.41602 -10.7422,11.50171 -16.1133,28.04778 -16.1133,49.64062 v 6.02344 h -20.6699 v 25.71484 h 20.6699 v 156.08789 h 30.5996 V 466.36523 h 54.1992 v -25.71484 h -55.1758 v -6.18555 c 0,-15.19094 2.9297,-25.66125 8.7891,-31.41211 5.9679,-5.85936 15.5171,-8.78906 28.6465,-8.78906 4.1232,0 8.8968,0.5419 14.3222,1.62695 5.4254,0.97657 9.82,1.95313 13.1836,2.92969 h 1.627 v -27.99414 c -4.5573,-0.86805 -9.6029,-1.62826 -15.1367,-2.27929 -5.4254,-0.65105 -11.5547,-0.97657 -18.3907,-0.97657 z m -1686.8476,1.62696 v 253.25585 h 30.5976 V 486.71094 c 8.3551,-6.40191 17.0906,-11.66386 26.2051,-15.78711 9.1146,-4.12326 17.85,-6.18555 26.2051,-6.18555 8.138,0 14.7557,1.13932 19.8555,3.41797 5.0998,2.17013 9.006,5.53451 11.7187,10.0918 2.6042,4.12325 4.3946,9.87349 5.3711,17.25195 0.9766,7.26995 1.4648,15.08248 1.4648,23.4375 v 103.51562 h 30.5997 V 504.45117 c 0,-22.24388 -5.1548,-39.27824 -15.4629,-51.10547 -10.3082,-11.82723 -25.2821,-17.74218 -44.9219,-17.74218 -10.7421,0 -21.2125,2.22505 -31.4121,6.67382 -10.1996,4.44878 -20.0744,10.6337 -29.6231,18.55469 v -91.63476 z m 1738.1172,9.27734 v 31.73828 h 34.5039 v -31.73828 z m -1973.6328,1.62891 v 28.64453 h 86.5898 v 213.70507 h 32.2266 V 408.74805 h 86.5879 v -28.64453 z m 521.9726,55.5 c -26.4757,0 -47.851,8.73549 -64.1269,26.20507 -16.1676,17.46959 -24.252,41.06993 -24.252,70.80079 0,30.05635 8.4636,53.27759 25.3906,69.6621 16.9271,16.27602 40.4738,24.41407 70.6387,24.41407 11.8273,0 23.1114,-1.46486 33.8535,-4.39453 10.7422,-2.92968 21.2681,-6.56599 31.5762,-10.90625 v -33.36524 h -1.627 c -5.3168,4.7743 -14.2686,9.65712 -26.8554,14.64844 -12.4784,4.8828 -24.9037,7.32422 -37.2735,7.32422 -9.3316,0 -17.9023,-1.3021 -25.7148,-3.90625 -7.704,-2.60417 -14.3772,-6.51044 -20.0195,-11.71875 -5.8594,-5.31684 -10.4723,-12.09919 -13.836,-20.34571 -3.3637,-8.35501 -5.0449,-18.12067 -5.0449,-29.29687 h 133.9512 v -16.60156 c 0,-26.36714 -6.6732,-46.71226 -20.0196,-61.03516 -13.2378,-14.32289 -32.1181,-21.48437 -56.6406,-21.48437 z m 354.8184,0 c -10.7422,0 -20.8889,2.22505 -30.4375,6.67382 -9.4402,4.44878 -18.9339,10.6337 -28.4825,18.55469 v -20.18164 h -30.5996 v 181.80273 h 30.5996 V 486.71094 c 8.3551,-6.40191 16.7095,-11.66386 25.0645,-15.78711 8.4635,-4.12326 16.8735,-6.18555 25.2285,-6.18555 8.7891,0 15.5159,1.19293 20.1817,3.58008 4.6658,2.27864 8.2465,5.75217 10.7421,10.41797 2.2786,4.34026 3.7435,10.14412 4.3946,17.41406 0.7595,7.16144 1.1406,14.75761 1.1406,22.78711 v 103.51562 h 30.5977 V 506.08008 c 0,-3.25521 -0.1072,-6.51042 -0.3243,-9.76563 -0.217,-3.36369 -0.4889,-6.2934 -0.8144,-8.78906 8.5721,-6.61891 17.1447,-12.04559 25.7168,-16.27734 8.572,-4.34028 17.1428,-6.50977 25.7148,-6.50977 8.7891,0 15.5179,1.19293 20.1836,3.58008 4.6658,2.38715 8.2465,5.91428 10.7422,10.58008 2.2787,4.34026 3.7435,10.14607 4.3945,17.41601 0.7596,7.26996 1.1387,14.81057 1.1387,22.62305 v 103.51562 h 30.5996 V 504.45117 c 0,-21.70135 -4.7756,-38.57294 -14.3242,-50.61719 -9.4401,-12.15274 -24.1422,-18.23046 -44.1074,-18.23046 -11.6103,0 -22.5153,2.3342 -32.7149,7 -10.1996,4.55727 -21.4837,12.04429 -33.8535,22.46093 -4.2317,-9.22307 -10.6886,-16.44012 -19.3691,-21.64843 -8.5721,-5.20833 -19.0423,-7.8125 -31.4121,-7.8125 z m 305.8261,0 c -25.716,0 -46.1703,8.62634 -61.3613,25.8789 -15.0824,17.14406 -22.623,40.52806 -22.623,70.15039 0,29.62234 7.5406,53.00633 22.623,70.15039 15.191,17.14407 35.6453,25.71485 61.3613,25.71485 25.4991,0 45.8442,-8.57078 61.0352,-25.71485 15.1909,-17.14406 22.7871,-40.52805 22.7871,-70.15039 0,-29.62233 -7.5962,-53.00633 -22.7871,-70.15039 -15.191,-17.25256 -35.5361,-25.8789 -61.0352,-25.8789 z m 199.0547,0 c -9.9826,0 -20.0183,2.17145 -30.1093,6.51171 -10.0912,4.23177 -18.664,10.19837 -25.7168,17.90235 -7.5955,8.24651 -13.6177,18.06773 -18.0664,29.46094 -4.3403,11.28469 -6.5098,24.7383 -6.5098,40.36328 0,28.53726 6.3476,50.67276 19.043,66.40625 12.8037,15.62496 30.0564,23.4375 51.7578,23.4375 13.0208,0 23.7075,-1.79037 32.0625,-5.3711 8.4635,-3.68922 17.3081,-9.2231 26.5312,-16.60156 v 16.60156 c 0,7.37847 -0.8138,14.05167 -2.4414,20.01953 -1.6276,5.96788 -4.3409,11.06902 -8.1387,15.30079 -3.7977,4.44877 -9.1152,7.92036 -15.9511,10.41601 -6.836,2.49566 -15.4624,3.74414 -25.8789,3.74414 -10.8507,0 -21.7002,-1.46484 -32.5508,-4.39453 -10.8508,-2.82118 -18.7724,-5.20899 -23.7637,-7.16211 h -1.6269 v 31.25 c 8.8974,2.49566 17.9029,4.39519 27.0175,5.69727 9.2231,1.41058 18.6633,2.11523 28.3203,2.11523 29.0798,0 50.6179,-7.2151 64.6153,-21.64648 13.9974,-14.43141 20.9961,-37.05519 20.9961,-67.8711 V 440.65039 h -28.6446 l -1.9531,7.8125 c -7.921,-4.34027 -15.4616,-7.54189 -22.623,-9.60351 -7.053,-2.17014 -15.844,-3.25586 -26.3692,-3.25586 z m 338.3789,0.65234 c -10.9592,0 -22.0805,0.97657 -33.3652,2.92969 -11.2847,1.95311 -19.911,3.74349 -25.8789,5.37109 v 31.08594 h 1.6269 c 10.5252,-4.01476 20.7255,-7.05167 30.5997,-9.11328 9.874,-2.17014 18.826,-3.25586 26.8554,-3.25586 6.619,0 12.9666,0.43468 19.043,1.30273 6.0763,0.86806 11.2847,2.54928 15.625,5.04492 4.5573,2.60417 8.0289,6.18491 10.416,10.74219 2.4957,4.55729 3.7442,10.30752 3.7441,17.25195 v 4.72071 c -17.795,0.86805 -34.4504,2.17013 -49.9667,3.90625 -15.5165,1.7361 -28.8093,5.04494 -39.877,9.92773 -10.9592,4.88282 -19.4228,11.61156 -25.3906,20.1836 -5.8594,8.46352 -8.7891,19.58487 -8.7891,33.36523 0,16.81854 5.6967,30.65323 17.0899,41.50391 11.3931,10.85067 25.2814,16.27539 41.666,16.27539 8.8976,0 16.6565,-0.86741 23.2754,-2.60352 6.6189,-1.62761 12.4782,-3.68989 17.5781,-6.18555 4.3403,-1.95311 8.7884,-4.55729 13.3457,-7.8125 4.6658,-3.36369 8.3558,-5.96788 11.0683,-7.8125 v 19.36914 h 30.4356 V 499.08008 c 0,-11.71873 -1.7904,-21.53799 -5.3711,-29.45899 -3.5807,-7.92099 -8.7891,-14.37782 -15.625,-19.36914 -6.9445,-5.09981 -15.1897,-8.68056 -24.7383,-10.74218 -9.44,-2.17014 -20.5634,-3.25391 -33.3672,-3.25391 z m -1075.0312,4.39453 v 181.80273 h 30.5996 V 493.38477 c 8.138,-6.61892 16.6016,-11.99003 25.3906,-16.11329 8.7891,-4.23175 17.9037,-6.34765 27.3438,-6.34765 5.8593,0 10.9049,0.26996 15.1367,0.8125 4.3403,0.43403 8.7884,1.19424 13.3457,2.27929 h 1.6269 v -31.4121 c -4.7742,-0.75955 -8.355,-1.24783 -10.7421,-1.46485 -2.3872,-0.32552 -6.2379,-0.48828 -11.5547,-0.48828 -9.6572,0 -19.1528,2.06035 -28.4844,6.18359 -9.2231,4.01476 -19.9098,10.90627 -32.0625,20.67188 v -26.85547 z m 876.4648,0 v 181.80273 h 30.5977 V 493.38477 c 8.138,-6.61892 16.6015,-11.99003 25.3906,-16.11329 8.7891,-4.23175 17.9037,-6.34765 27.3438,-6.34765 5.8594,0 10.9049,0.26996 15.1367,0.8125 4.3403,0.43403 8.7904,1.19424 13.3476,2.27929 h 1.627 v -31.4121 c -4.7743,-0.75955 -8.3551,-1.24783 -10.7422,-1.46485 -2.3871,-0.32552 -6.2398,-0.48828 -11.5566,-0.48828 -9.6571,0 -19.1509,2.06035 -28.4825,6.18359 -9.223,4.01476 -19.9116,10.90627 -32.0644,20.67188 v -26.85547 z m 454.0996,0 v 181.80273 h 30.5996 V 440.65039 Z m -1455.2382,20.18164 c 16.2759,0 28.3739,4.39455 36.2949,13.18359 8.0295,8.78906 12.0985,21.2125 12.207,37.27149 h -104.166 c 1.3021,-14.3229 6.7825,-26.31165 16.4394,-35.96875 9.7657,-9.6571 22.8401,-14.48633 39.2247,-14.48633 z m 662.2714,1.13867 c 16.3846,0 29.1891,5.75219 38.4122,17.25391 9.2229,11.3932 13.8339,28.86225 13.8339,52.4082 0,23.00343 -4.6664,40.36526 -13.998,52.08399 -9.2231,11.61022 -21.9721,17.41406 -38.2481,17.41406 -16.4929,0 -29.3511,-5.8594 -38.5742,-17.57813 -9.223,-11.82722 -13.834,-29.1335 -13.834,-51.91992 0,-23.54595 4.5574,-41.015 13.6719,-52.4082 9.2231,-11.50172 22.1348,-17.25391 38.7363,-17.25391 z m 204.4278,1.14063 c 6.9444,0 13.8875,0.81381 20.832,2.4414 7.0529,1.5191 14.6491,4.12328 22.7871,7.8125 v 99.1211 c -7.4869,5.75085 -15.7342,10.36177 -24.7402,13.83398 -8.8976,3.36371 -17.7939,5.04492 -26.6914,5.04492 -16.6016,0 -28.4831,-5.26195 -35.6446,-15.78711 -7.1613,-10.52514 -10.7421,-25.98745 -10.7421,-46.38671 0,-21.48434 4.8272,-37.8696 14.4843,-49.1543 9.6571,-11.2847 22.8963,-16.92578 39.7149,-16.92578 z m 381.6718,63.96484 v 50.61719 c -7.5953,5.85936 -15.8426,10.90495 -24.7402,15.13672 -8.8975,4.12325 -18.7168,6.18555 -29.459,6.18554 -12.9122,0 -22.5152,-2.60416 -28.8086,-7.8125 -6.2934,-5.31682 -9.4394,-13.18296 -9.4394,-23.5996 0,-9.22309 2.7114,-16.44013 8.1367,-21.64844 5.4253,-5.31684 12.5332,-9.22309 21.3223,-11.71875 7.3784,-2.06163 17.3604,-3.63369 29.9472,-4.71875 12.6953,-1.08508 23.7096,-1.89887 33.041,-2.44141 z M 709.26953,551.40039 c 0.77,0.77 30.85983,52.14038 66.50977,114.24023 l 65.16992,112.69922 -5.17969,6.90039 c -8.62998,11.11998 -42.54932,44.28004 -59.0293,57.5 -77.62984,62.48988 -185.14986,100.44055 -275.42968,97.56055 l -18.78125,-0.57031 112.5,-194.92969 C 656.93916,637.461 708.30953,550.45039 709.26953,551.40039 Z M 108.39062,703.01953 h 226.36915 c 124.56974,0 226.3496,0.37977 226.34961,0.75977 0,0.96 -131.86954,229.43007 -133.01954,230.58008 -1.72998,1.71998 -42.94068,-8.23963 -66.89062,-16.09961 C 330.71928,908.28979 286.82941,887.20949 260.18945,869.76953 200.76957,830.85961 148.63986,775.46925 115.66992,715.85938 Z"
           style="fill:url(#linearGradient3305);fill-opacity:1" /><path
           id="path892"
           d="m 3018.0765,410.21363 h -34.5052 v -31.73825 h 34.5052 z m -1.9531,212.23937 h -30.599 V 440.6498 h 30.599 z m -50.293,-223.63259 h -1.6276 q -5.0455,-1.46484 -13.1835,-2.92969 -8.1381,-1.6276 -14.3229,-1.6276 -19.694,0 -28.6459,8.78906 -8.789,8.62629 -8.789,31.41273 v 6.18489 h 55.1757 v 25.71612 h -54.1991 V 622.453 h -30.599 V 466.36592 h -20.6705 V 440.6498 h 20.6705 v -6.02213 q 0,-32.3893 16.1133,-49.64188 16.1133,-17.41535 46.5494,-17.41535 10.2539,0 18.3919,0.97656 8.3008,0.97656 15.1367,2.27864 z M 2809.0924,622.453 h -30.4362 v -19.36847 q -4.069,2.76693 -11.0677,7.81249 -6.8359,4.88281 -13.3463,7.8125 -7.6498,3.74348 -17.5782,6.18489 -9.9283,2.60416 -23.2747,2.60416 -24.5768,0 -41.6666,-16.27602 -17.0898,-16.27603 -17.0898,-41.50387 0,-20.67055 8.789,-33.36585 8.9518,-12.85806 25.3906,-20.18228 16.6016,-7.32421 39.8763,-9.92837 23.2747,-2.60417 49.9674,-3.90625 v -4.72004 q 0,-10.41666 -3.7435,-17.25259 -3.5807,-6.83593 -10.4166,-10.74218 -6.5105,-3.74348 -15.625,-5.04557 -9.1146,-1.30208 -19.043,-1.30208 -12.0442,0 -26.8554,3.25521 -14.8112,3.09244 -30.599,9.11457 h -1.6276 v -31.08721 q 8.9519,-2.4414 25.8789,-5.37109 16.9271,-2.92968 33.3659,-2.92968 19.2057,0 33.3658,3.2552 14.3229,3.09245 24.7396,10.74218 10.2539,7.48697 15.625,19.36847 5.3711,11.8815 5.3711,29.45961 z m -30.4362,-44.75907 v -50.61844 q -13.9974,0.8138 -33.0403,2.44141 -18.8802,1.6276 -29.9479,4.72004 -13.1836,3.74349 -21.3216,11.71874 -8.138,7.81249 -8.138,21.64712 0,15.62498 9.4401,23.60023 9.4401,7.8125 28.8085,7.8125 16.1133,0 29.4596,-6.18489 13.3464,-6.34765 24.7396,-15.13671 z M 2644.8673,474.01565 h -1.6276 q -6.8359,-1.6276 -13.3464,-2.27865 -6.3476,-0.8138 -15.1367,-0.8138 -14.1601,0 -27.3437,6.34765 -13.1836,6.18489 -25.3906,16.11327 V 622.453 h -30.5989 V 440.6498 h 30.5989 v 26.85544 q 18.2292,-14.64843 32.0638,-20.67056 13.9974,-6.18488 28.483,-6.18488 7.9753,0 11.556,0.48828 3.5807,0.32552 10.7422,1.46484 z m -173.6652,127.7668 q 0,46.22391 -20.9961,67.87103 -20.9961,21.64711 -64.6158,21.64711 -14.4857,0 -28.3203,-2.11588 -13.6719,-1.95312 -27.0182,-5.69661 v -31.24997 h 1.6276 q 7.4869,2.92968 23.763,7.16145 16.276,4.39453 32.552,4.39453 15.625,0 25.8789,-3.74349 10.2539,-3.74348 15.9505,-10.41665 5.6966,-6.34765 8.138,-15.29947 2.4414,-8.95181 2.4414,-20.01951 v -16.60155 q -13.8346,11.0677 -26.5299,16.60155 -12.5325,5.37109 -32.0638,5.37109 -32.552,0 -51.7577,-23.43748 -19.043,-23.60024 -19.043,-66.40618 0,-23.43748 6.5104,-40.36455 6.6732,-17.08982 18.0664,-29.4596 10.5794,-11.55598 25.7161,-17.90363 15.1367,-6.51041 30.1107,-6.51041 15.7877,0 26.3672,3.2552 10.7421,3.09245 22.6236,9.60286 l 1.9532,-7.81249 h 28.6458 z m -30.599,-29.29685 v -99.12099 q -12.207,-5.53385 -22.7864,-7.8125 -10.4167,-2.4414 -20.8333,-2.4414 -25.2279,0 -39.7135,16.92707 -14.4857,16.92706 -14.4857,49.1536 0,30.59892 10.7422,46.38667 10.7422,15.78774 35.6445,15.78774 13.3463,0 26.6927,-5.04556 13.5091,-5.20833 24.7395,-13.83463 z M 2276.378,531.63278 q 0,44.43355 -22.7864,70.14967 -22.7865,25.71612 -61.0351,25.71612 -38.5742,0 -61.3607,-25.71612 -22.6236,-25.71612 -22.6236,-70.14967 0,-44.43355 22.6236,-70.14967 22.7865,-25.87888 61.3607,-25.87888 38.2486,0 61.0351,25.87888 22.7864,25.71612 22.7864,70.14967 z m -31.5755,0 q 0,-35.31898 -13.8346,-52.4088 -13.8346,-17.25259 -38.4114,-17.25259 -24.9024,0 -38.737,17.25259 -13.6718,17.08982 -13.6718,52.4088 0,34.17965 13.8346,51.92052 13.8346,17.57811 38.5742,17.57811 24.414,0 38.2486,-17.41535 13.9974,-17.57811 13.9974,-52.08328 z M 2062.511,622.453 h -30.5989 V 518.93748 q 0,-11.71874 -1.1393,-22.62368 -0.9766,-10.90493 -4.3946,-17.41534 -3.7435,-6.9987 -10.7422,-10.57942 -6.9986,-3.58073 -20.1822,-3.58073 -12.8581,0 -25.7161,6.51041 -12.8581,6.34765 -25.7162,16.27603 0.4883,3.74349 0.8138,8.78905 0.3256,4.88281 0.3256,9.76562 V 622.453 h -30.599 V 518.93748 q 0,-12.04426 -1.1393,-22.78644 -0.9766,-10.90493 -4.3945,-17.41534 -3.7435,-6.9987 -10.7422,-10.41666 -6.9987,-3.58073 -20.1823,-3.58073 -12.5325,0 -25.2278,6.18489 -12.5325,6.18489 -25.0651,15.78775 V 622.453 h -30.5989 V 440.6498 h 30.5989 v 20.18227 q 14.3229,-11.8815 28.4831,-18.55467 14.3229,-6.67317 30.4361,-6.67317 18.5547,0 31.4128,7.81249 13.0208,7.81249 19.3684,21.64711 18.5547,-15.62498 33.8542,-22.46091 15.2994,-6.99869 32.7148,-6.99869 29.9479,0 44.108,18.22915 14.3229,18.06638 14.3229,50.61844 z M 1768.4032,474.01565 h -1.6276 q -6.8359,-1.6276 -13.3463,-2.27865 -6.3477,-0.8138 -15.1367,-0.8138 -14.1601,0 -27.3437,6.34765 -13.1836,6.18489 -25.3906,16.11327 V 622.453 h -30.599 V 440.6498 h 30.599 v 26.85544 q 18.2291,-14.64843 32.0637,-20.67056 13.9974,-6.18488 28.4831,-6.18488 7.9752,0 11.556,0.48828 3.5807,0.32552 10.7421,1.46484 z m -159.8306,60.70957 H 1474.621 q 0,16.76431 5.0455,29.29685 5.0456,12.36978 13.8346,20.34503 8.4636,7.81249 20.0196,11.71874 11.7187,3.90625 25.7161,3.90625 18.5546,0 37.2721,-7.32421 18.8802,-7.48698 26.8554,-14.64843 h 1.6276 v 33.36586 q -15.4622,6.51041 -31.5755,10.90493 -16.1132,4.39453 -33.8541,4.39453 -45.2474,0 -70.638,-24.41404 -25.3906,-24.5768 -25.3906,-69.66139 0,-44.59631 24.2513,-70.80071 24.4141,-26.2044 64.1276,-26.2044 36.7838,0 56.6405,21.48435 20.0195,21.48436 20.0195,61.0351 z m -29.7851,-23.43747 q -0.1627,-24.08852 -12.207,-37.2721 -11.8815,-13.18358 -36.2955,-13.18358 -24.5768,0 -39.2253,14.48566 -14.4856,14.48566 -16.4387,35.97002 z M 1397.4726,622.453 h -30.5989 V 518.93748 q 0,-12.53254 -1.4649,-23.43748 -1.4648,-11.0677 -5.3711,-17.25259 -4.069,-6.83593 -11.7187,-10.09113 -7.6497,-3.41797 -19.8567,-3.41797 -12.5326,0 -26.2045,6.18489 -13.6718,6.18489 -26.2044,15.78775 V 622.453 h -30.5989 V 369.19804 h 30.5989 v 91.63403 q 14.323,-11.8815 29.6224,-18.55467 15.2995,-6.67317 31.4127,-6.67317 29.4597,0 44.9219,17.74087 15.4622,17.74086 15.4622,51.10672 z M 1215.3439,408.74878 h -86.5885 V 622.453 h -32.2265 V 408.74878 h -86.5885 v -28.6458 h 205.4035 z M 464.31055,10.31055 c -70.72993,6.89999 -126.89115,22.41909 -183.6211,50.78906 -48.29995,24.33998 -86.44012,52.13012 -127.08007,92.58008 -42.73996,42.92995 -70.729874,82.03942 -95.839849,134.35937 -21.459978,44.66996 -35.068602,88.18076 -43.308593,138.97071 -5.9499946,37.36996 -5.9499946,108.28995 0,145.66992 8.629991,52.89994 22.23971,95.45083 45.429687,142.80078 25.109975,51.17995 51.559025,88.17035 92.958985,129.57031 40.24996,40.43996 74.56098,65.74987 121.71094,90.08984 140.49986,72.44998 303.80037,73.59968 444.49023,3.25977 C 798.5907,898.53043 871.42927,831.64071 918.19922,755.55078 995.62914,629.05091 1011.5505,470.53072 960.56055,331.38086 952.13056,308.38088 928.55046,260.07959 916.48047,241.09961 877.38051,179.56967 820.069,122.26012 758.53906,83.16016 739.55908,71.08017 691.25974,47.51007 668.25977,39.08008 642.37979,29.69009 602.90028,19.52968 573.57031,14.92969 549.80034,11.07969 483.86053,8.40055 464.31055,10.31055 Z M 520.4707,60.7207 c -1.34,4.22 -222.91109,387.17914 -223.87109,387.36914 -0.96,0 -131.86907,-225.60063 -133.78906,-230.39062 -1.15,-2.88 26.64025,-32.19908 48.49023,-50.78906 68.23993,-58.83994 154.48985,-96.60079 241.50977,-105.80078 21.65998,-2.3 68.43015,-2.49867 67.66015,-0.38868 z m 57.28907,6.52149 c 4.14249,-1.1025 10.36954,0.38281 23.01953,3.25781 44.65995,10.53999 100.05011,34.11995 138.58008,59.41992 59.41994,38.90996 111.55151,94.30076 144.52148,153.7207 l 7.2793,13.0293 H 666.5293 c -123.43988,0 -224.05969,-0.5793 -223.67969,-1.5293 2.11,-3.63999 117.8804,-204.13087 124.40039,-215.63085 4.31,-7.475 6.36727,-11.16508 10.50977,-12.26758 z M 129.46094,262.16992 c 0.96,0 51.93826,87.21081 113.6582,193.9707 61.52994,106.5699 112.32172,194.55001 112.51172,195.5 0.38,0.77 -60.18086,1.5293 -134.55078,1.5293 H 85.949219 L 79.240234,632.2793 C 45.890268,529.5494 54.130437,409.56943 100.90039,312.76953 c 12.64999,-26.25997 26.45055,-50.59961 28.56055,-50.59961 z m 519.42968,84.33985 h 132.44922 132.25 l 6.71094,21.08007 c 13.41999,42.35996 20.31836,87.02005 20.31836,132.25 0,69.76993 -15.52987,134.36061 -47.33984,197.81055 -9.00999,17.62998 -17.24985,32.77969 -18.58985,33.92969 -1.72,1.53 -27.98047,-42.35975 -110.40039,-185.34961 C 704.85912,443.30057 654.44929,356.09062 652.5293,352.64062 Z m 60.37891,204.89062 c 0.77,0.77 30.8598,52.1403 66.50977,114.24023 l 65.16992,112.69922 -5.17969,6.90039 c -8.62999,11.11999 -42.54931,44.28002 -59.0293,57.5 -77.62992,62.48994 -185.14977,100.44055 -275.42968,97.56055 l -18.78125,-0.57031 112.5,-194.92969 C 656.93923,637.46089 708.30953,550.45039 709.26953,551.40039 Z M 108.39062,703.01953 h 226.36915 c 124.56987,0 226.34961,0.37977 226.34961,0.75977 0,0.96 -131.86954,229.43008 -133.01954,230.58008 -1.72999,1.71999 -42.94065,-8.23962 -66.89062,-16.09961 C 330.71925,908.28978 286.82943,887.20951 260.18945,869.76953 200.76951,830.85957 148.63989,775.46932 115.66992,715.85938 Z"
           style="fill:url(#linearGradient3307);fill-opacity:1" /></g></g></g></g></svg>
