<?xml version="1.0" encoding="UTF-8" standalone="no"?>
<svg
   width="24"
   height="24"
   viewBox="0 0 24 24"
   fill="none"
   stroke="currentColor"
   stroke-width="2"
   stroke-linecap="round"
   stroke-linejoin="round"
   class="feather feather-maximize"
   version="1.1"
   id="svg276"
   sodipodi:docname="maximize.svg"
   inkscape:version="1.2.1 (9c6d41e410, 2022-07-14)"
   xmlns:inkscape="http://www.inkscape.org/namespaces/inkscape"
   xmlns:sodipodi="http://sodipodi.sourceforge.net/DTD/sodipodi-0.dtd"
   xmlns="http://www.w3.org/2000/svg"
   xmlns:svg="http://www.w3.org/2000/svg">
  <defs
     id="defs280" />
  <sodipodi:namedview
     id="namedview278"
     pagecolor="#ffffff"
     bordercolor="#000000"
     borderopacity="0.25"
     inkscape:showpageshadow="2"
     inkscape:pageopacity="0.0"
     inkscape:pagecheckerboard="0"
     inkscape:deskcolor="#d1d1d1"
     showgrid="false"
     inkscape:zoom="34.875"
     inkscape:cx="12"
     inkscape:cy="12.014337"
     inkscape:window-width="1920"
     inkscape:window-height="1017"
     inkscape:window-x="-8"
     inkscape:window-y="-8"
     inkscape:window-maximized="1"
     inkscape:current-layer="svg276" />
  <path
     d="M8 3H5a2 2 0 0 0-2 2v3m18 0V5a2 2 0 0 0-2-2h-3m0 18h3a2 2 0 0 0 2-2v-3M3 16v3a2 2 0 0 0 2 2h3"
     id="path274" />
  <path
     style="fill:#ffffff;stroke:#ffffff;stroke-width:0.0573477"
     d="M 2.7526882,8.9490423 C 2.4556776,8.8548639 2.2184056,8.6530896 2.0978033,8.3921339 2.0367329,8.2599917 2.035727,8.2327639 2.0278231,6.4978787 2.0189765,4.5560779 2.0253951,4.4593704 2.194061,3.9932396 c 0.3716674,-1.027153 1.3045551,-1.7933852 2.3650788,-1.94257 0.1555219,-0.021877 0.7880232,-0.02946 1.9641577,-0.023548 1.7126414,0.00861 1.736492,0.00952 1.8700281,0.071209 0.4040831,0.186679 0.6584634,0.6563575 0.573883,1.0595969 C 8.8735486,3.6044566 8.569233,3.8978958 8.1250724,3.9699669 8.0155593,3.9877369 7.3099209,3.9996539 6.3594985,3.9997839 4.8181819,3.9999961 4.7720618,4.0016039 4.6142713,4.0606399 4.3926006,4.1435779 4.1435771,4.392601 4.0606395,4.6142717 4.0016025,4.7720622 3.9999945,4.8181823 3.9997835,6.3594989 3.9996545,7.3113332 3.9877465,8.0154983 3.9699255,8.1253271 3.9046055,8.5278854 3.6633299,8.8128942 3.287302,8.931681 3.0810537,8.996834 2.9199121,9.002068 2.7526882,8.9490423 Z"
     id="path282" />
  <path
     style="fill:#ffffff;stroke:#ffffff;stroke-width:0.0573477"
     d="m 20.711138,8.9356539 c -0.319425,-0.1055383 -0.543148,-0.333629 -0.66297,-0.6759143 -0.01978,-0.056513 -0.03636,-0.70456 -0.0466,-1.8224636 l -0.0159,-1.734767 -0.07008,-0.1433692 C 19.815743,4.3548966 19.579527,4.1331487 19.383779,4.0599101 19.228502,4.0018132 19.175739,3.9999934 17.640501,3.9997834 15.997827,3.9995587 15.784483,3.9872156 15.573598,3.8802024 15.209878,3.6956332 14.975381,3.2849721 15.019757,2.9102892 c 0.03981,-0.33614 0.281893,-0.6710429 0.586917,-0.8119588 0.133673,-0.061754 0.155933,-0.062582 1.895447,-0.070507 1.941801,-0.00885 2.038509,-0.00243 2.504639,0.1662379 0.936717,0.3389437 1.629138,1.1073987 1.895114,2.1032156 0.0609,0.2280031 0.06228,0.2746415 0.06228,2.0969886 0,1.8544124 -3.16e-4,1.8644806 -0.06249,1.9990604 -0.206668,0.44735 -0.741123,0.6908126 -1.190532,0.5423283 z"
     id="path284" />
  <path
     style="fill:#ffffff;stroke:#ffffff;stroke-width:0.0573477"
     d="m 15.70822,21.937219 c -0.358382,-0.11206 -0.642761,-0.461628 -0.688293,-0.846073 -0.04342,-0.366631 0.188595,-0.784497 0.533953,-0.961657 0.212616,-0.109066 0.256482,-0.111859 2.008844,-0.127923 l 1.734767,-0.0159 0.143369,-0.07046 c 0.183212,-0.09004 0.384306,-0.291133 0.474345,-0.474345 l 0.07046,-0.143369 0.0159,-1.734767 c 0.01606,-1.752362 0.01886,-1.796228 0.127923,-2.008844 0.176822,-0.344699 0.595101,-0.577366 0.960222,-0.534123 0.33614,0.03981 0.671043,0.281893 0.811959,0.586917 0.06217,0.13458 0.06249,0.144648 0.06249,1.999061 0,1.822347 -0.0014,1.868985 -0.06228,2.096988 -0.312092,1.168472 -1.233984,2.032984 -2.381269,2.233054 -0.336356,0.05865 -3.625429,0.0599 -3.812385,0.0014 z"
     id="path286" />
  <path
     style="fill:#ffffff;stroke:#ffffff;stroke-width:0.0573477"
     d="M 4.4544567,21.934061 C 3.4018459,21.741583 2.5106925,20.959649 2.1685504,19.928315 2.0254225,19.496879 2.0176441,19.362043 2.0271217,17.476703 c 0.00861,-1.712642 0.00952,-1.736493 0.071209,-1.870029 0.1409159,-0.305024 0.4758188,-0.547106 0.8119588,-0.586917 0.3746829,-0.04438 0.785344,0.190121 0.9699132,0.553841 0.1070132,0.210885 0.1193563,0.424229 0.119581,2.066903 2.093e-4,1.535238 0.00203,1.588001 0.060127,1.743278 0.073239,0.195748 0.2949865,0.431964 0.4992297,0.531802 l 0.1433692,0.07008 1.734767,0.0159 c 1.1090087,0.01017 1.7660909,0.02689 1.8216049,0.04635 0.3897878,0.136695 0.6259658,0.40149 0.7083277,0.794152 0.039786,0.18968 0.00572,0.402821 -0.097364,0.609232 -0.080791,0.161769 -0.2997311,0.368692 -0.476519,0.450365 -0.1340083,0.06191 -0.1518609,0.06253 -1.9273758,0.0675 -1.4289147,0.004 -1.8365751,-0.0031 -2.0114931,-0.03511 z"
     id="path288" />
</svg>
