<?xml version="1.0" encoding="UTF-8" standalone="no"?>
<svg
   width="24"
   height="24"
   viewBox="0 0 24 24"
   fill="none"
   stroke="currentColor"
   stroke-width="2"
   stroke-linecap="round"
   stroke-linejoin="round"
   class="feather feather-minimize"
   version="1.1"
   id="svg300"
   sodipodi:docname="minimize.svg"
   inkscape:version="1.2.1 (9c6d41e410, 2022-07-14)"
   xmlns:inkscape="http://www.inkscape.org/namespaces/inkscape"
   xmlns:sodipodi="http://sodipodi.sourceforge.net/DTD/sodipodi-0.dtd"
   xmlns="http://www.w3.org/2000/svg"
   xmlns:svg="http://www.w3.org/2000/svg">
  <defs
     id="defs304" />
  <sodipodi:namedview
     id="namedview302"
     pagecolor="#ffffff"
     bordercolor="#000000"
     borderopacity="0.25"
     inkscape:showpageshadow="2"
     inkscape:pageopacity="0.0"
     inkscape:pagecheckerboard="0"
     inkscape:deskcolor="#d1d1d1"
     showgrid="false"
     inkscape:zoom="34.875"
     inkscape:cx="12"
     inkscape:cy="12.014337"
     inkscape:window-width="1920"
     inkscape:window-height="1017"
     inkscape:window-x="-8"
     inkscape:window-y="-8"
     inkscape:window-maximized="1"
     inkscape:current-layer="svg300" />
  <path
     d="M8 3v3a2 2 0 0 1-2 2H3m18 0h-3a2 2 0 0 1-2-2V3m0 18v-3a2 2 0 0 1 2-2h3M3 16h3a2 2 0 0 1 2 2v3"
     id="path298" />
  <path
     style="fill:#ffffff;stroke:#ffffff;stroke-width:0.0573477"
     d="M 2.7526882,8.9490423 C 2.4555924,8.8548367 2.2181806,8.6528992 2.0979482,8.3921339 2.009675,8.2006833 2.0099447,7.7987521 2.0984753,7.6066744 2.1913873,7.405091 2.3949948,7.2035461 2.6026004,7.1076565 l 0.1787616,-0.082567 1.7491039,-0.014337 1.749104,-0.014337 0.162172,-0.082182 C 6.6422925,6.8126022 6.8098394,6.6439851 6.915672,6.437276 L 6.996416,6.2795699 7.010753,4.5304659 7.02509,2.781362 7.107657,2.6026004 c 0.09589,-0.2076056 0.2974345,-0.4112131 0.4990179,-0.5041251 0.1912998,-0.088172 0.5940579,-0.08879 0.7839321,-0.0012 0.263963,0.1217638 0.4696146,0.360378 0.5532129,0.6418842 0.064254,0.2163662 0.067365,3.2779529 0.00376,3.6998892 C 8.8394727,7.1561872 8.4657285,7.8179091 7.9018452,8.2905385 7.4957055,8.6309523 6.9684648,8.8677712 6.439046,8.9475791 6.065524,9.0038859 2.929574,9.0051309 2.7526882,8.9490414 Z"
     id="path306" />
  <path
     style="fill:#ffffff;stroke:#ffffff;stroke-width:0.0573477"
     d="M 17.53405,8.9458672 C 16.540255,8.7881462 15.659207,8.1036407 15.268265,7.1855277 15.019088,6.6003467 15.006314,6.4612149 15.016604,4.4444444 l 0.0085,-1.6630824 0.08257,-0.1787616 c 0.09589,-0.2076056 0.297434,-0.4112131 0.499017,-0.5041251 0.1913,-0.088172 0.594058,-0.08879 0.783933,-0.0012 0.156891,0.072373 0.352458,0.2424624 0.440202,0.3828545 0.145525,0.2328447 0.142257,0.1904372 0.157985,2.0503388 l 0.01479,1.749104 0.08074,0.1577061 c 0.105833,0.2067091 0.273379,0.3753262 0.47393,0.4769574 l 0.162172,0.082182 1.749104,0.014337 1.749104,0.014337 0.178762,0.082567 c 0.207605,0.09589 0.411213,0.2974345 0.504125,0.4990179 0.08881,0.192681 0.08881,0.5939702 0,0.7866512 -0.09291,0.2015834 -0.29652,0.4031283 -0.504125,0.4990179 l -0.178762,0.082567 -1.72043,0.00482 c -1.323624,0.00371 -1.776644,-0.0041 -1.964158,-0.033862 z"
     id="path308" />
  <path
     style="fill:#ffffff;stroke:#ffffff;stroke-width:0.0573477"
     d="m 15.70822,21.938916 c -0.264723,-0.08653 -0.477542,-0.280087 -0.602779,-0.548235 l -0.08035,-0.172043 -0.0085,-1.663082 c -0.01029,-2.016771 0.0025,-2.155903 0.251661,-2.741084 0.329298,-0.773345 1.012884,-1.391362 1.835678,-1.659603 0.411046,-0.134006 0.63031,-0.146432 2.431821,-0.137822 l 1.682874,0.008 0.178762,0.08257 c 0.207605,0.09589 0.411213,0.297434 0.504125,0.499017 0.08881,0.192681 0.08881,0.593971 0,0.786652 -0.09291,0.201583 -0.29652,0.403128 -0.504125,0.499017 l -0.178762,0.08257 -1.749104,0.01434 -1.749104,0.01434 -0.162172,0.08218 c -0.200551,0.101631 -0.368097,0.270248 -0.47393,0.476957 l -0.08074,0.157706 -0.01479,1.749104 c -0.01573,1.859902 -0.01246,1.817494 -0.157985,2.050339 -0.08878,0.142055 -0.284722,0.311507 -0.440202,0.380694 -0.166357,0.07403 -0.513536,0.09354 -0.682387,0.03835 z"
     id="path310" />
  <path
     style="fill:#ffffff;stroke:#ffffff;stroke-width:0.0573477"
     d="M 7.7082202,21.938916 C 7.4434968,21.85239 7.2306781,21.658829 7.1054411,21.390681 L 7.0250896,21.218638 7.0107527,19.469534 6.9964158,17.72043 6.915672,17.562724 C 6.8098394,17.356015 6.6422925,17.187398 6.4417419,17.085767 l -0.162172,-0.08218 -1.749104,-0.01434 -1.7491039,-0.01434 -0.1787616,-0.08257 C 2.3949948,16.796447 2.1913873,16.594903 2.0984753,16.39332 c -0.088809,-0.192681 -0.088809,-0.593971 0,-0.786652 0.092912,-0.201583 0.2965195,-0.403128 0.5041251,-0.499017 l 0.1787616,-0.08257 1.6630824,-0.0085 c 2.0167705,-0.01029 2.1559023,0.0025 2.7410833,0.251661 0.9307937,0.396342 1.6092101,1.279623 1.7622917,2.294459 0.06338,0.420171 0.060068,3.482379 -0.004,3.698119 -0.083977,0.282781 -0.2922142,0.523582 -0.5532129,0.639724 -0.1663568,0.07403 -0.5135361,0.09354 -0.6823863,0.03835 z"
     id="path312" />
</svg>
