<?xml version="1.0" encoding="UTF-8" standalone="no"?>
<svg
   width="24"
   height="24"
   viewBox="0 0 24 24"
   fill="none"
   stroke="currentColor"
   stroke-width="2"
   stroke-linecap="round"
   stroke-linejoin="round"
   class="feather feather-play-circle"
   version="1.1"
   id="svg377"
   sodipodi:docname="play-circle - gray.svg"
   inkscape:version="1.2.1 (9c6d41e410, 2022-07-14)"
   xmlns:inkscape="http://www.inkscape.org/namespaces/inkscape"
   xmlns:sodipodi="http://sodipodi.sourceforge.net/DTD/sodipodi-0.dtd"
   xmlns="http://www.w3.org/2000/svg"
   xmlns:svg="http://www.w3.org/2000/svg">
  <defs
     id="defs381" />
  <sodipodi:namedview
     id="namedview379"
     pagecolor="#ffffff"
     bordercolor="#000000"
     borderopacity="0.25"
     inkscape:showpageshadow="2"
     inkscape:pageopacity="0.0"
     inkscape:pagecheckerboard="0"
     inkscape:deskcolor="#d1d1d1"
     showgrid="false"
     inkscape:zoom="34.875"
     inkscape:cx="11.197133"
     inkscape:cy="12.071685"
     inkscape:window-width="1366"
     inkscape:window-height="705"
     inkscape:window-x="-8"
     inkscape:window-y="-8"
     inkscape:window-maximized="1"
     inkscape:current-layer="svg377" />
  <circle
     cx="12"
     cy="12"
     r="10"
     id="circle373" />
  <polygon
     points="10 8 16 12 10 16 10 8"
     id="polygon375" />
  <path
     style="fill:#737373;stroke:#ffffff;stroke-width:0.0573477;fill-opacity:1"
     d="M 11.096774,22.949779 C 9.1278526,22.782119 7.238441,22.088768 5.6293204,20.943407 4.8798624,20.409948 4.0046698,19.584247 3.4440594,18.88172 1.8594164,16.895933 1.0185128,14.510135 1.0185128,12 c 0,-2.5124473 0.8384411,-4.8911082 2.4256996,-6.8817204 C 3.8382822,4.6240691 4.620689,3.8412368 5.1182796,3.4433027 6.881231,2.0334314 8.938199,1.2234217 11.211355,1.0439217 c 0.5265,-0.041575 1.539914,-0.019401 2.078968,0.045489 2.510853,0.3022511 4.837438,1.4572804 6.597458,3.2752973 2.062618,2.1305864 3.168383,4.9687871 3.085312,7.919165 -0.03272,1.162024 -0.198037,2.115579 -0.549814,3.171324 -0.551553,1.655308 -1.416073,3.050644 -2.666033,4.302976 -1.868374,1.871922 -4.243795,2.969813 -6.911368,3.194351 -0.401604,0.03381 -1.337126,0.03234 -1.749104,-0.0027 z m 1.871783,-1.990084 c 3.578302,-0.372047 6.614031,-2.889657 7.661386,-6.353789 0.50172,-1.659441 0.50172,-3.552371 0,-5.2118119 C 19.913162,7.0233362 18.25202,5.0503576 16.043011,3.9460832 15.031334,3.4403505 14.062368,3.1562516 12.943951,3.0374452 12.350192,2.9743718 11.236399,2.9945276 10.695341,3.0781373 9.1910122,3.310601 7.7999166,3.884677 6.6379928,4.7525193 4.8649918,6.0767765 3.6460034,7.9674971 3.1855038,10.107527 3.0354745,10.804742 3.0116152,11.064408 3.0116152,12 c 0,0.933373 0.024033,1.19636 0.1722051,1.884391 0.4641653,2.155336 1.6736294,4.0332 3.4541725,5.36309 1.2390045,0.925414 2.8125411,1.54308 4.3584232,1.710828 0.499071,0.05416 1.458125,0.05483 1.972141,0.0014 z"
     id="path383" />
  <path
     style="fill:#737373;stroke:#ffffff;stroke-width:0.0573477;fill-opacity:1"
     d="M 9.7429689,16.949489 C 9.4566295,16.85564 9.2479285,16.678799 9.113099,16.415771 L 9.0322581,16.258065 V 12 7.7419355 L 9.1163322,7.5759002 C 9.2187444,7.3736496 9.3979303,7.2031553 9.6150496,7.1013737 9.8265447,7.0022285 10.164866,6.9954431 10.365591,7.0863207 c 0.07097,0.03213 1.503403,0.9745975 3.183189,2.0943714 3.342748,2.2283329 3.276145,2.1786379 3.382824,2.5240249 0.07251,0.234762 0.07251,0.355804 0,0.590566 -0.106679,0.345387 -0.04008,0.295692 -3.382824,2.524025 -1.679786,1.119774 -3.109405,2.060433 -3.176931,2.090354 -0.161212,0.07143 -0.4723315,0.09114 -0.6288801,0.03983 z m 2.8878551,-3.882394 c 0.859499,-0.574507 1.562724,-1.0547 1.562724,-1.067095 0,-0.01687 -2.9628,-2.0157465 -3.16129,-2.1327874 -0.02854,-0.016831 -0.03584,0.4174934 -0.03584,2.1327874 0,1.715294 0.0073,2.149618 0.03584,2.132787 0.01971,-0.01162 0.739068,-0.491185 1.598566,-1.065692 z"
     id="path385" />
</svg>
