<?xml version="1.0" encoding="UTF-8" standalone="no"?>
<svg
   width="24"
   height="24"
   viewBox="0 0 24 24"
   fill="none"
   stroke="currentColor"
   stroke-width="2"
   stroke-linecap="round"
   stroke-linejoin="round"
   class="feather feather-settings"
   version="1.1"
   id="svg432"
   sodipodi:docname="settings.svg"
   inkscape:version="1.2.1 (9c6d41e410, 2022-07-14)"
   xmlns:inkscape="http://www.inkscape.org/namespaces/inkscape"
   xmlns:sodipodi="http://sodipodi.sourceforge.net/DTD/sodipodi-0.dtd"
   xmlns="http://www.w3.org/2000/svg"
   xmlns:svg="http://www.w3.org/2000/svg">
  <defs
     id="defs436" />
  <sodipodi:namedview
     id="namedview434"
     pagecolor="#ffffff"
     bordercolor="#000000"
     borderopacity="0.25"
     inkscape:showpageshadow="2"
     inkscape:pageopacity="0.0"
     inkscape:pagecheckerboard="0"
     inkscape:deskcolor="#d1d1d1"
     showgrid="false"
     inkscape:zoom="34.875"
     inkscape:cx="12"
     inkscape:cy="12.014337"
     inkscape:window-width="1920"
     inkscape:window-height="1017"
     inkscape:window-x="-8"
     inkscape:window-y="-8"
     inkscape:window-maximized="1"
     inkscape:current-layer="svg432" />
  <circle
     cx="12"
     cy="12"
     r="3"
     id="circle428" />
  <path
     d="M19.4 15a1.65 1.65 0 0 0 .33 1.82l.06.06a2 2 0 0 1 0 2.83 2 2 0 0 1-2.83 0l-.06-.06a1.65 1.65 0 0 0-1.82-.33 1.65 1.65 0 0 0-1 1.51V21a2 2 0 0 1-2 2 2 2 0 0 1-2-2v-.09A1.65 1.65 0 0 0 9 19.4a1.65 1.65 0 0 0-1.82.33l-.06.06a2 2 0 0 1-2.83 0 2 2 0 0 1 0-2.83l.06-.06a1.65 1.65 0 0 0 .33-1.82 1.65 1.65 0 0 0-1.51-1H3a2 2 0 0 1-2-2 2 2 0 0 1 2-2h.09A1.65 1.65 0 0 0 4.6 9a1.65 1.65 0 0 0-.33-1.82l-.06-.06a2 2 0 0 1 0-2.83 2 2 0 0 1 2.83 0l.06.06a1.65 1.65 0 0 0 1.82.33H9a1.65 1.65 0 0 0 1-1.51V3a2 2 0 0 1 2-2 2 2 0 0 1 2 2v.09a1.65 1.65 0 0 0 1 1.51 1.65 1.65 0 0 0 1.82-.33l.06-.06a2 2 0 0 1 2.83 0 2 2 0 0 1 0 2.83l-.06.06a1.65 1.65 0 0 0-.33 1.82V9a1.65 1.65 0 0 0 1.51 1H21a2 2 0 0 1 2 2 2 2 0 0 1-2 2h-.09a1.65 1.65 0 0 0-1.51 1z"
     id="path430" />
  <path
     style="fill:#ffffff;stroke:#ffffff;stroke-width:0.0573477"
     d="M 11.641577,23.956038 C 10.471168,23.775882 9.4871653,22.881794 9.186681,21.72546 9.1552261,21.604414 9.1187957,21.344086 9.1057247,21.146953 9.0926541,20.949821 9.0666655,20.749878 9.047973,20.702636 8.943711,20.439135 8.6537244,20.258127 8.3357752,20.258087 c -0.2293095,-2.9e-5 -0.353005,0.0614 -0.6103515,0.303096 -0.8658111,0.813163 -2.1644356,1.02377 -3.2572726,0.528254 C 4.0194721,20.885997 3.5097838,20.451747 3.2271105,20.032081 2.847194,19.468046 2.6628314,18.740705 2.7356797,18.093307 2.8139868,17.397398 3.0729328,16.837434 3.5701603,16.288763 3.7747366,16.063021 3.827957,15.955448 3.827957,15.767689 c 0,-0.213275 -0.057554,-0.357241 -0.2000198,-0.500334 C 3.4684708,15.107187 3.3619406,15.07653 2.8960573,15.056734 1.7784653,15.009246 0.82157511,14.388109 0.32838899,13.390008 -0.3374675,12.042459 0.10433995,10.424542 1.3649556,9.5940585 1.8310765,9.2869818 2.2645024,9.1447481 2.8530466,9.1057247 3.0501792,9.0926541 3.2501219,9.0666655 3.297364,9.047973 3.5608654,8.943711 3.741873,8.6537244 3.7419128,8.3357752 3.7419415,8.1037127 3.6844657,7.9910274 3.4182862,7.7012883 2.9117973,7.1499705 2.6502816,6.4705798 2.6502816,5.7060932 c 0,-0.791668 0.2686836,-1.465762 0.8119856,-2.0371722 0.5236895,-0.5507828 1.1138839,-0.8439717 1.8814816,-0.9346571 0.4942956,-0.058397 1.0461918,0.040675 1.5480511,0.277895 0.3056711,0.1444851 0.5368435,0.3019033 0.8194374,0.5580014 0.108084,0.09795 0.239438,0.1960246 0.2918979,0.2179438 0.136763,0.057143 0.3445933,0.049199 0.5576054,-0.021315 C 8.9164984,3.6490222 8.9900347,3.5188275 9.0201534,2.953405 9.0498446,2.3960122 9.1231524,2.1009314 9.3407125,1.6630824 9.491725,1.3591636 9.6853551,1.1012875 9.9566251,0.8428113 11.108596,-0.25482923 12.881345,-0.25973111 14.032412,0.8315412 c 0.267612,0.2537107 0.431909,0.4670286 0.593147,0.7701246 0.229461,0.4313431 0.321616,0.7715731 0.354482,1.3087285 0.02454,0.4010337 0.07161,0.5348349 0.23734,0.6745734 0.137206,0.1156904 0.256354,0.1569678 0.453091,0.1569678 0.225127,0 0.340821,-0.059602 0.62824,-0.3236493 0.549662,-0.5049678 1.235964,-0.7697416 1.995195,-0.7697416 0.786496,0 1.467401,0.2719787 2.037172,0.8137226 0.550783,0.5236895 0.843972,1.1138839 0.934657,1.8814816 0.0584,0.4942956 -0.04068,1.0461918 -0.277895,1.5480511 -0.144485,0.3056711 -0.301903,0.5368435 -0.558001,0.8194374 -0.09795,0.108084 -0.196025,0.239438 -0.217944,0.2918979 -0.05714,0.136763 -0.0492,0.3445933 0.02132,0.5576054 0.117767,0.3557578 0.247961,0.4292941 0.813384,0.4594128 0.557393,0.029691 0.852474,0.102999 1.290323,0.3205591 1.153779,0.5732947 1.821234,1.8773655 1.604987,3.1358185 -0.106311,0.618677 -0.355658,1.116548 -0.784716,1.566844 -0.258476,0.27127 -0.516353,0.4649 -0.820271,0.615912 -0.423321,0.210341 -0.726378,0.288208 -1.247312,0.32048 -0.400989,0.02484 -0.534955,0.07203 -0.674574,0.237614 -0.11569,0.137206 -0.156967,0.256354 -0.156967,0.453091 0,0.225127 0.0596,0.340821 0.323649,0.62824 0.506489,0.551318 0.768004,1.230708 0.768004,1.995195 0,0.791668 -0.268683,1.465762 -0.811985,2.037172 -0.915709,0.963084 -2.244368,1.217567 -3.429533,0.656873 -0.305762,-0.144655 -0.536966,-0.302126 -0.819437,-0.558112 -0.227457,-0.206131 -0.333134,-0.257797 -0.527291,-0.257797 -0.256116,0 -0.459276,0.108178 -0.59863,0.318757 -0.06876,0.103904 -0.07698,0.148732 -0.0982,0.535314 -0.02668,0.486018 -0.108074,0.853855 -0.263277,1.189771 -0.488211,1.056669 -1.485488,1.722768 -2.629318,1.756169 -0.197133,0.0058 -0.435842,-0.0015 -0.530466,-0.01602 z m 0.880441,-2.043839 c 0.18972,-0.09282 0.405354,-0.314042 0.4883,-0.500952 0.04648,-0.104728 0.06499,-0.226203 0.08204,-0.53813 0.01211,-0.221578 0.04202,-0.489156 0.06648,-0.594618 0.119933,-0.51714 0.366614,-0.955115 0.746333,-1.325094 0.285798,-0.278466 0.608132,-0.476703 0.983361,-0.604772 0.369543,-0.126129 0.64372,-0.166187 0.996774,-0.145631 0.648184,0.03774 1.212469,0.287338 1.714342,0.758303 0.273521,0.256676 0.454673,0.336186 0.765944,0.336186 0.503407,0 0.87532,-0.288532 0.993935,-0.7711 0.09088,-0.369713 -0.0089,-0.67419 -0.339766,-1.037189 -0.345355,-0.378858 -0.546055,-0.738794 -0.671843,-1.204885 -0.0818,-0.303082 -0.07531,-0.978739 0.01232,-1.284891 0.284011,-0.992141 1.03934,-1.713154 2.012519,-1.921085 0.118279,-0.02527 0.369922,-0.05647 0.559205,-0.06934 0.274158,-0.01863 0.376212,-0.03815 0.501792,-0.09596 0.199961,-0.09206 0.389296,-0.28071 0.484685,-0.482936 0.06378,-0.13522 0.07439,-0.196547 0.07439,-0.430108 0,-0.233561 -0.01061,-0.294888 -0.07439,-0.430108 -0.09081,-0.192516 -0.275646,-0.381617 -0.469105,-0.479926 -0.125122,-0.06358 -0.200876,-0.07695 -0.560448,-0.09886 -0.535605,-0.03265 -0.85108,-0.107373 -1.208344,-0.286226 -0.360844,-0.180646 -0.666044,-0.423705 -0.89398,-0.7119635 -0.233049,-0.2947225 -0.3637,-0.5635452 -0.480826,-0.9893293 -0.08577,-0.3117858 -0.09475,-0.3817694 -0.09569,-0.7455197 -8.52e-4,-0.3306758 0.01051,-0.4440559 0.06447,-0.643245 C 18.399392,7.1539074 18.619627,6.7644548 18.961305,6.4003527 19.258984,6.0831372 19.361128,5.7662799 19.284578,5.3975409 19.181144,4.8992984 18.648829,4.5370744 18.146508,4.6231183 17.89115,4.6668591 17.74749,4.744792 17.49068,4.978892 16.959321,5.4632625 16.442929,5.6832313 15.770609,5.7115934 15.497024,5.7231349 15.370651,5.7145339 15.153834,5.6696161 14.123836,5.4562323 13.326997,4.6870879 13.090628,3.6781167 13.060058,3.5476255 13.023959,3.2795699 13.010408,3.0824373 12.990598,2.7942501 12.971534,2.6931106 12.91312,2.5663082 12.820962,2.3662584 12.632326,2.1769434 12.430108,2.0815578 12.294888,2.0177753 12.233561,2.0071685 12,2.0071685 c -0.233682,0 -0.294818,0.010585 -0.430108,0.074471 C 11.371033,2.1755445 11.192531,2.3487308 11.09353,2.5438177 11.02638,2.6761435 11.01356,2.7461994 10.992321,3.0967741 10.959675,3.6357414 10.88239,3.9648688 10.705509,4.318193 10.524261,4.6802423 10.281468,4.985268 9.9929135,5.2134383 9.6964854,5.4478354 9.4215318,5.581231 9.0009296,5.6947057 8.6952986,5.7771622 8.6174065,5.7869712 8.2580645,5.7882546 7.9264178,5.7894389 7.8142627,5.7782601 7.6129176,5.7239484 7.1518976,5.5995911 6.7651604,5.3810354 6.4003527,5.0386953 6.0831372,4.7410162 5.7662799,4.638872 5.3975409,4.7154216 4.8992984,4.8188565 4.5370744,5.3511708 4.6231183,5.8534916 4.6668591,6.1088499 4.744792,6.2525101 4.978892,6.5093199 5.4602102,7.0373302 5.6814446,7.5520984 5.7119736,8.2150538 5.7680889,9.4336292 4.9880622,10.576042 3.8566308,10.932354 c -0.2783676,0.08766 -0.2991833,0.09125 -0.7051816,0.121491 -0.4132404,0.03078 -0.5497929,0.06781 -0.7447928,0.201974 -0.1599173,0.110026 -0.277861,0.268666 -0.358325,0.481964 -0.078456,0.207975 -0.067806,0.551501 0.023435,0.755901 0.083221,0.186435 0.2989537,0.408141 0.4863634,0.499832 0.1374053,0.06723 0.2067738,0.07937 0.5641458,0.09875 0.2241118,0.01215 0.4937634,0.04211 0.5992258,0.06657 1.4584387,0.338235 2.365282,1.802523 1.9992725,3.228245 -0.1160989,0.452242 -0.321028,0.817354 -0.6756625,1.203793 -0.1052946,0.114737 -0.2235217,0.278678 -0.2627266,0.364314 -0.2623131,0.572966 0.063557,1.245924 0.6789396,1.402084 0.3669342,0.09311 0.6941377,-0.014 1.0604542,-0.347161 0.51286,-0.466436 1.0336281,-0.690406 1.6789382,-0.722072 1.3316714,-0.06535 2.4902962,0.806751 2.8077482,2.113394 0.0096,0.03943 0.03,0.240629 0.04538,0.447117 0.03053,0.409926 0.06803,0.550107 0.197446,0.738211 0.106225,0.154393 0.252954,0.267683 0.459691,0.354929 0.226816,0.09572 0.581471,0.08282 0.811036,-0.02949 z"
     id="path438" />
  <path
     style="fill:#ffffff;stroke:#ffffff;stroke-width:0.0573477"
     d="M 11.498208,15.955034 C 10.487245,15.817361 9.5395215,15.288189 8.9143135,14.512288 7.301535,12.510784 7.94269,9.5784218 10.244449,8.4288288 10.540902,8.280768 10.927745,8.1502573 11.275415,8.0810074 c 0.346763,-0.069069 1.102407,-0.069069 1.44917,0 1.636721,0.3260064 2.868401,1.5576869 3.194408,3.1944076 0.06907,0.346763 0.06907,1.102407 0,1.44917 -0.324649,1.629906 -1.565765,2.875399 -3.178746,3.189957 -0.287719,0.05611 -0.965174,0.0782 -1.242039,0.04049 z m 0.946236,-1.990743 c 0.110395,-0.02304 0.321083,-0.101293 0.468196,-0.173908 0.673983,-0.332675 1.093533,-1.019582 1.093533,-1.790383 0,-0.770378 -0.418237,-1.457017 -1.089233,-1.788249 -0.149478,-0.07379 -0.362101,-0.153008 -0.472496,-0.176042 -0.914614,-0.1908428 -1.834479,0.240664 -2.232693,1.047351 -0.07379,0.149478 -0.153008,0.362101 -0.176042,0.472496 -0.1908294,0.91455 0.240452,1.83401 1.047351,2.232878 0.149478,0.07389 0.35565,0.152308 0.458159,0.174261 0.246598,0.05281 0.654326,0.05353 0.903225,0.0016 z"
     id="path440" />
</svg>
