<?xml version="1.0" encoding="UTF-8" standalone="no"?>
<!-- Svg Vector Icons : http://www.onlinewebfonts.com/icon -->

<svg
   version="1.1"
   x="0px"
   y="0px"
   viewBox="0 0 1000 1000"
   enable-background="new 0 0 1000 1000"
   xml:space="preserve"
   id="svg10"
   sodipodi:docname="shutter.svg"
   inkscape:version="1.2.1 (9c6d41e410, 2022-07-14)"
   xmlns:inkscape="http://www.inkscape.org/namespaces/inkscape"
   xmlns:sodipodi="http://sodipodi.sourceforge.net/DTD/sodipodi-0.dtd"
   xmlns="http://www.w3.org/2000/svg"
   xmlns:svg="http://www.w3.org/2000/svg"><defs
   id="defs14" /><sodipodi:namedview
   id="namedview12"
   pagecolor="#505050"
   bordercolor="#eeeeee"
   borderopacity="1"
   inkscape:showpageshadow="0"
   inkscape:pageopacity="0"
   inkscape:pagecheckerboard="0"
   inkscape:deskcolor="#505050"
   showgrid="false"
   inkscape:zoom="0.525"
   inkscape:cx="500"
   inkscape:cy="500.95238"
   inkscape:window-width="1366"
   inkscape:window-height="705"
   inkscape:window-x="-8"
   inkscape:window-y="-8"
   inkscape:window-maximized="1"
   inkscape:current-layer="svg10" />
<metadata
   id="metadata2"> Svg Vector Icons : http://www.onlinewebfonts.com/icon </metadata>
<g
   id="g8"
   style="fill:#ffffff;fill-opacity:1;stroke:#ffffff;stroke-opacity:1"><g
     transform="translate(0.000000,512.000000) scale(0.100000,-0.100000)"
     id="g6"
     style="fill:#ffffff;fill-opacity:1;stroke:#ffffff;stroke-opacity:1"><path
       d="M4643.1,5016.9c-707.3-69-1268.9-224.2-1836.2-507.9c-483-243.4-864.4-521.3-1270.8-925.8c-427.4-429.3-707.3-820.4-958.4-1343.6C363.1,1792.9,227,1357.8,144.6,849.9C85.1,476.2,85.1-233,144.6-606.8c86.3-529,222.4-954.5,454.3-1428c251.1-511.8,515.6-881.7,929.6-1295.7c402.5-404.4,745.6-657.5,1217.1-900.9c1405-724.5,3038-736,4444.9-32.6c795.4,398.7,1523.8,1067.6,1991.5,1828.5c774.3,1265,933.5,2850.2,423.6,4241.7c-84.3,230-320.1,713-440.8,902.8c-391,615.3-964.1,1188.4-1579.4,1579.4c-189.8,120.8-672.8,356.5-902.8,440.8c-258.8,93.9-653.6,195.5-946.9,241.5C5498,5009.2,4838.6,5036,4643.1,5016.9z M5204.7,4512.8C5191.3,4470.6,2975.6,641,2966,639.1c-9.6,0-1318.7,2256-1337.9,2303.9c-11.5,28.8,266.4,322,484.9,507.9c682.4,588.4,1544.9,966,2415.1,1058C4744.7,4531.9,5212.4,4533.9,5204.7,4512.8z M6007.8,4415c446.6-105.4,1000.5-341.2,1385.8-594.2c594.2-389.1,1115.5-943,1445.2-1537.2l72.8-130.3H6665.3c-1234.4,0-2240.6,5.8-2236.8,15.3c21.1,36.4,1178.8,2041.3,1244,2156.3C5758.7,4474.4,5754.8,4472.5,6007.8,4415z M2431.2,558.6c615.3-1065.7,1123.2-1945.5,1125.1-1955c3.8-7.7-601.8-15.3-1345.5-15.3H859.5l-67.1,208.9C458.9-175.5,541.3,1024.3,1009,1992.3c126.5,262.6,264.5,506,285.6,506C1304.2,2498.3,1814,1626.2,2431.2,558.6z M9203,1444.1c134.2-423.6,203.2-870.2,203.2-1322.5c0-697.7-155.3-1343.6-473.4-1978.1c-90.1-176.3-172.5-327.8-185.9-339.3c-17.2-15.3-279.8,423.6-1104,1853.5C7048.6,687,6544.5,1559.1,6525.3,1593.6l-36.4,61.3h1324.5h1322.5L9203,1444.1z M7757.8-1536.4l651.7-1127l-51.8-69c-86.3-111.2-425.5-442.8-590.3-575c-776.3-624.9-1851.5-1004.4-2754.3-975.6l-187.8,5.7L5950.3-2328C6569.4-1254.6,7083.1-384.5,7092.7-394C7100.4-401.7,7401.3-915.4,7757.8-1536.4z M5611.1-1917.8c0-9.6-1318.7-2294.3-1330.2-2305.8c-17.3-17.2-429.4,82.4-668.9,161c-304.8,99.7-743.7,310.5-1010.1,484.9c-594.2,389.1-1115.5,943-1445.2,1539.1l-72.8,128.4h2263.7C4593.3-1910.2,5611.1-1914,5611.1-1917.8z"
       id="path4"
       style="fill:#ffffff;fill-opacity:1;stroke:#ffffff;stroke-opacity:1" /></g></g>
</svg>
