<?xml version="1.0" encoding="UTF-8" standalone="no"?>
<svg
   width="24"
   height="24"
   viewBox="0 0 24 24"
   fill="none"
   stroke="currentColor"
   stroke-width="2"
   stroke-linecap="round"
   stroke-linejoin="round"
   class="feather feather-square"
   version="1.1"
   id="svg451"
   sodipodi:docname="square.svg"
   inkscape:version="1.2.1 (9c6d41e410, 2022-07-14)"
   xmlns:inkscape="http://www.inkscape.org/namespaces/inkscape"
   xmlns:sodipodi="http://sodipodi.sourceforge.net/DTD/sodipodi-0.dtd"
   xmlns="http://www.w3.org/2000/svg"
   xmlns:svg="http://www.w3.org/2000/svg">
  <defs
     id="defs455" />
  <sodipodi:namedview
     id="namedview453"
     pagecolor="#ffffff"
     bordercolor="#000000"
     borderopacity="0.25"
     inkscape:showpageshadow="2"
     inkscape:pageopacity="0.0"
     inkscape:pagecheckerboard="0"
     inkscape:deskcolor="#d1d1d1"
     showgrid="false"
     inkscape:zoom="34.875"
     inkscape:cx="12"
     inkscape:cy="12.014337"
     inkscape:window-width="1920"
     inkscape:window-height="1017"
     inkscape:window-x="-8"
     inkscape:window-y="-8"
     inkscape:window-maximized="1"
     inkscape:current-layer="svg451" />
  <rect
     x="3"
     y="3"
     width="18"
     height="18"
     rx="2"
     ry="2"
     id="rect449" />
  <path
     style="fill:#ffffff;stroke:#ffffff;stroke-width:0.0573477"
     d="M 4.4501294,21.932916 C 3.4404455,21.750429 2.5742789,21.01624 2.2032196,20.028369 2.0096978,19.513156 2.0215054,20.034832 2.0215054,12 c 0,-8.034832 -0.011808,-7.513156 0.1817142,-8.028369 C 2.5160813,3.1386993 3.1386993,2.5160813 3.971631,2.2032196 4.486844,2.0096978 3.965168,2.0215054 12,2.0215054 c 8.034832,0 7.513156,-0.011808 8.028369,0.1817142 0.832932,0.3128617 1.45555,0.9354797 1.768412,1.7684114 0.193521,0.515213 0.181714,-0.00646 0.181714,8.028369 0,8.034832 0.01181,7.513156 -0.181714,8.028369 -0.312862,0.832932 -0.93548,1.45555 -1.768412,1.768412 -0.515679,0.193696 0.01093,0.181983 -8.05363,0.17914 -6.149648,-0.0022 -7.3361793,-0.0089 -7.5246096,-0.04301 z M 19.389394,19.937989 c 0.226384,-0.0847 0.463894,-0.322211 0.548595,-0.548595 L 20,19.223655 V 12 4.7763448 L 19.937989,4.610606 C 19.853288,4.3842223 19.615778,4.1467119 19.389394,4.0620108 L 19.223655,4 H 12 4.7763448 L 4.610606,4.0620108 C 4.3842223,4.1467119 4.1467119,4.3842223 4.0620108,4.610606 L 4,4.7763448 V 12 19.223655 l 0.062011,0.165739 c 0.082618,0.220816 0.3222591,0.46345 0.5404533,0.547203 l 0.1573925,0.06042 7.2318992,0.0015 7.231899,0.0015 0.165739,-0.06201 z"
     id="path457" />
</svg>
