<?xml version="1.0" encoding="UTF-8" standalone="no"?>
<svg
   width="24"
   height="24"
   viewBox="0 0 24 24"
   fill="none"
   stroke="currentColor"
   stroke-width="2"
   stroke-linecap="round"
   stroke-linejoin="round"
   class="feather feather-x-octagon"
   version="1.1"
   id="svg488"
   sodipodi:docname="x-octagon.svg"
   inkscape:version="1.2.1 (9c6d41e410, 2022-07-14)"
   xmlns:inkscape="http://www.inkscape.org/namespaces/inkscape"
   xmlns:sodipodi="http://sodipodi.sourceforge.net/DTD/sodipodi-0.dtd"
   xmlns="http://www.w3.org/2000/svg"
   xmlns:svg="http://www.w3.org/2000/svg">
  <defs
     id="defs492" />
  <sodipodi:namedview
     id="namedview490"
     pagecolor="#ffffff"
     bordercolor="#000000"
     borderopacity="0.25"
     inkscape:showpageshadow="2"
     inkscape:pageopacity="0.0"
     inkscape:pagecheckerboard="0"
     inkscape:deskcolor="#d1d1d1"
     showgrid="false"
     inkscape:zoom="34.875"
     inkscape:cx="12"
     inkscape:cy="12.014337"
     inkscape:window-width="1920"
     inkscape:window-height="1017"
     inkscape:window-x="-8"
     inkscape:window-y="-8"
     inkscape:window-maximized="1"
     inkscape:current-layer="svg488" />
  <polygon
     points="7.86 2 16.14 2 22 7.86 22 16.14 16.14 22 7.86 22 2 16.14 2 7.86 7.86 2"
     id="polygon482" />
  <line
     x1="15"
     y1="9"
     x2="9"
     y2="15"
     id="line484" />
  <line
     x1="9"
     y1="9"
     x2="15"
     y2="15"
     id="line486" />
  <path
     style="fill:#ffffff;stroke:#ffffff;stroke-width:0.0573477"
     d="M 7.5797614,22.942307 C 7.522107,22.921607 7.4188811,22.871315 7.3503708,22.830545 7.281528,22.789577 5.8769818,21.405573 4.2105359,19.736632 1.7666449,17.289081 1.1798211,16.686961 1.1137619,16.55914 L 1.0322581,16.401434 V 12 7.5985663 L 1.1137574,7.4408602 C 1.1799119,7.3128473 1.7845721,6.6932852 4.325227,4.1502443 l 3.1299701,-3.1329097 4.4731179,0.00746 4.473119,0.00746 0.143369,0.068789 c 0.114939,0.055148 0.747372,0.6718826 3.189232,3.1100639 2.529611,2.5258007 3.061781,3.0706125 3.139785,3.2143647 l 0.09392,0.1730902 V 12 16.401434 l -0.09392,0.17309 c -0.078,0.143752 -0.610174,0.688564 -3.139785,3.214365 -2.44186,2.438181 -3.074293,3.054915 -3.189232,3.110064 l -0.143369,0.06879 -4.358423,0.0061 c -3.537042,0.005 -4.3781786,-9.92e-4 -4.4632496,-0.03153 z M 18.372702,18.372818 21.003584,15.742052 V 12.000117 8.2581806 L 18.372818,5.6272984 15.742052,2.9964158 H 12.000117 8.2581806 L 5.6272984,5.6271816 2.9964158,8.2579475 v 3.7419355 3.741936 l 2.6307658,2.630883 2.6307659,2.630882 h 3.7419355 3.741936 z"
     id="path494" />
  <path
     style="fill:#ffffff;stroke:#ffffff;stroke-width:0.0573477"
     d="m 8.7393846,15.945795 c -0.2964045,-0.09688 -0.5045722,-0.280459 -0.636104,-0.560974 -0.060834,-0.12974 -0.074561,-0.201246 -0.074561,-0.388405 0,-0.416783 -0.012975,-0.399879 1.3700272,-1.784946 L 10.608409,12 9.3987467,10.78853 C 8.0157449,9.4034631 8.0287195,9.4203671 8.0287195,9.0035842 c 0,-0.1879068 0.013661,-0.2585331 0.075538,-0.3905379 0.1062463,-0.2266598 0.2578938,-0.3821181 0.4788709,-0.4909048 0.1665036,-0.081969 0.2181532,-0.093465 0.4198534,-0.093445 0.4175027,4.14e-5 0.4001923,-0.013241 1.7855482,1.37005 L 12,10.608409 13.21147,9.3987467 c 1.052044,-1.0504756 1.233387,-1.219652 1.378024,-1.2855709 0.509724,-0.232308 1.062435,-0.020055 1.307225,0.5020032 0.06084,0.1297397 0.07456,0.2012458 0.07456,0.3884052 0,0.4167829 0.01297,0.3998789 -1.370028,1.7849458 L 13.391591,12 l 1.209662,1.21147 c 1.383002,1.385067 1.370028,1.368163 1.370028,1.784946 0,0.187159 -0.01373,0.258665 -0.07456,0.388405 -0.24479,0.522058 -0.797501,0.734311 -1.307225,0.502003 -0.144637,-0.06592 -0.32598,-0.235095 -1.378024,-1.285571 L 12,13.391591 10.78853,14.601253 c -1.0604403,1.058859 -1.2325805,1.219285 -1.3808134,1.286848 -0.2028139,0.09244 -0.4869729,0.11697 -0.668332,0.05769 z"
     id="path496" />
</svg>
